<svg width="16" height="16" viewBox="0 0 16 16" fill="none" xmlns="http://www.w3.org/2000/svg">
<g clip-path="url(#clip0)">
<path d="M11.4658 3.37551H7.0311C6.68585 3.37551 6.40601 3.65535 6.40601 4.0006C6.40601 4.34585 6.68585 4.62569 7.0311 4.62569H11.4658C11.811 4.62569 12.0909 4.34585 12.0909 4.0006C12.0909 3.65535 11.811 3.37551 11.4658 3.37551Z" fill="#282E33"/>
<path d="M11.4658 5.87584H7.0311C6.68585 5.87584 6.40601 6.15569 6.40601 6.50094C6.40601 6.84619 6.68585 7.12603 7.0311 7.12603H11.4658C11.811 7.12603 12.0909 6.84619 12.0909 6.50094C12.0909 6.15569 11.811 5.87584 11.4658 5.87584Z" fill="#282E33"/>
<path d="M8.93763 8.37622H7.0311C6.68585 8.37622 6.40601 8.65606 6.40601 9.00131C6.40601 9.34656 6.68585 9.62641 7.0311 9.62641H8.93763C9.28288 9.62641 9.56272 9.34656 9.56272 9.00131C9.56272 8.65606 9.28288 8.37622 8.93763 8.37622Z" fill="#282E33"/>
<path d="M14.0009 8.50122C14.3461 8.50122 14.626 8.22137 14.626 7.87612V2.50038C14.626 1.12166 13.5043 0 12.1256 0H6.37477C4.99684 0 3.87568 1.12041 3.8744 2.49806C2.49571 2.49806 1.37402 3.61972 1.37402 4.99844V13.4997C1.37402 14.8783 2.49568 16 3.8744 16H9.93777C11.3165 16 12.4381 14.8784 12.4381 13.4997V13.4807C13.6698 13.3263 14.626 12.2725 14.626 10.9998C14.626 10.6545 14.3461 10.3747 14.0009 10.3747C13.6556 10.3747 13.3758 10.6545 13.3758 10.9998C13.3758 11.6889 12.8151 12.2498 12.1259 12.2499L6.37505 12.2513H6.37477C6.04087 12.2513 5.72696 12.1213 5.49087 11.8853C5.25468 11.6491 5.12459 11.3351 5.12459 11.0012V2.50038C5.12459 1.81103 5.68543 1.25019 6.37477 1.25019H12.1256C12.815 1.25019 13.3758 1.81103 13.3758 2.50038V7.87616C13.3758 8.22138 13.6556 8.50122 14.0009 8.50122ZM6.37477 13.5015H6.3754L11.188 13.5003C11.1876 14.1893 10.6269 14.7498 9.93777 14.7498H3.87443C3.18509 14.7498 2.62424 14.1889 2.62424 13.4996V4.99837C2.62424 4.30903 3.18509 3.74819 3.87443 3.74819V11.0011C3.87443 11.6691 4.13459 12.2971 4.60696 12.7693C5.07924 13.2415 5.70696 13.5015 6.37477 13.5015Z" fill="#282E33"/>
</g>
<defs>
<clipPath id="clip0">
<rect width="16" height="16" fill="white"/>
</clipPath>
</defs>
</svg>
