<svg width="16" height="16" viewBox="0 0 16 16" fill="none" xmlns="http://www.w3.org/2000/svg">
  <g clip-path="url(#clip0)">
    <path d="M5.88053 3.09868C5.88053 3.50189 5.88053 5.30157 5.88053 5.30157H4.26663V7.99526H5.88053V16H9.19583V7.99548H11.4205C11.4205 7.99548 11.6289 6.70388 11.7299 5.29163C11.4403 5.29163 9.20837 5.29163 9.20837 5.29163C9.20837 5.29163 9.20837 3.72453 9.20837 3.44985C9.20837 3.17457 9.56983 2.80429 9.9271 2.80429C10.2837 2.80429 11.0363 2.80429 11.7334 2.80429C11.7334 2.43754 11.7334 1.17033 11.7334 9.62223e-09C10.8028 9.62223e-09 9.74411 9.62223e-09 9.27745 9.62223e-09C5.79858 -0.000185988 5.88053 2.69618 5.88053 3.09868Z" fill="white"/>
  </g>
  <defs>
    <clipPath id="clip0">
      <rect width="16" height="16" fill="white"/>
    </clipPath>
  </defs>
</svg>
