<svg width="24" height="24" viewBox="0 0 24 24" fill="none" xmlns="http://www.w3.org/2000/svg">
<rect x="0.5" y="11.7942" width="23" height="11.7059" rx="0.5" stroke="white"/>
<path d="M20.0377 10.2416C20.3774 10.8724 20.5828 11.5351 20.6511 12.2058L3.34891 12.2058C3.41713 11.5351 3.62256 10.8724 3.96227 10.2416C4.38666 9.45342 5.01391 8.72784 5.8161 8.11077C6.61839 7.49362 7.57723 6.99935 8.6401 6.6607C9.70283 6.32208 10.8448 6.14697 12 6.14697C13.1552 6.14697 14.2971 6.32208 15.3599 6.6607C16.4227 6.99935 17.3816 7.49362 18.1839 8.11077C18.9861 8.72784 19.6133 9.45342 20.0377 10.2416Z" stroke="white"/>
<path d="M15.3706 2.35294L16.1079 3.73529H11.7941V0.5H16.1079L15.3706 1.88235L15.2451 2.11765L15.3706 2.35294Z" stroke="white"/>
<rect x="9.88235" y="19.7646" width="4.23529" height="1.41177" fill="white"/>
<rect x="9.88235" y="16.9412" width="4.23529" height="1.41176" fill="white"/>
<rect x="2.82352" y="16.9412" width="1.41176" height="1.41176" fill="white"/>
<rect x="2.82352" y="19.7646" width="1.41176" height="1.41177" fill="white"/>
<rect x="5.64706" y="16.9412" width="1.41176" height="1.41176" fill="white"/>
<rect x="5.64706" y="19.7646" width="1.41176" height="1.41177" fill="white"/>
<rect x="16.9412" y="16.9412" width="1.41176" height="1.41176" fill="white"/>
<rect x="16.9412" y="19.7646" width="1.41176" height="1.41177" fill="white"/>
<rect x="19.7647" y="16.9412" width="1.41177" height="1.41176" fill="white"/>
<rect x="19.7647" y="19.7646" width="1.41177" height="1.41177" fill="white"/>
<rect x="2.82352" y="14.1177" width="18.3529" height="1.41177" fill="white"/>
</svg>
