<svg width="160" height="40" viewBox="0 0 160 40" fill="none" xmlns="http://www.w3.org/2000/svg">
<g clip-path="url(#clip0)">
<path d="M80.0018 33.9884C79.9936 34.1038 80.0215 34.2054 80.0752 34.2984C80.0808 34.3603 80.0946 34.4107 80.123 34.4729L81.5968 37.6257C81.6896 37.8258 81.8893 37.9016 82.1062 37.9016H92.1937C92.5057 37.9016 92.7564 37.6482 92.7564 37.3385C92.7564 37.0289 92.5057 36.7755 92.1937 36.7755H82.4663L81.4592 34.5683C81.462 34.5683 81.4899 34.6021 81.5042 34.6134L94.9984 34.6021C94.3288 35.1621 93.8591 35.99 93.8591 36.9328C93.8591 38.6107 95.2259 39.9536 96.9056 39.9536C97.9911 39.9536 98.945 39.3089 99.4851 38.4643H107.215C107.752 39.3089 108.706 39.9508 109.795 39.9508C111.474 39.9508 112.838 38.633 112.838 36.9551C112.838 36.012 112.408 35.1649 111.733 34.6044L126.743 34.5931C126.065 35.1533 125.635 35.9866 125.635 36.9326C125.635 38.6104 126.999 39.9533 128.678 39.9533C129.764 39.9533 130.718 39.3086 131.258 38.4641H138.89C138.921 38.4641 138.952 38.5063 138.983 38.5035C139.52 39.3677 140.477 39.9986 141.568 39.9986C143.247 39.9986 144.612 38.6248 144.612 36.9438C144.612 35.9954 144.176 35.1336 143.495 34.5765L157.028 34.5455L155.602 36.7752H146.204C145.894 36.7752 145.641 37.0286 145.641 37.3382C145.641 37.6479 145.894 37.9013 146.204 37.9013H155.912C156.105 37.9013 156.286 37.8534 156.39 37.6873L158.522 34.3344C158.603 34.2021 158.629 34.047 158.592 33.9008C158.609 33.8361 158.612 33.7657 158.601 33.6953L156.302 17.9781L158.781 18.8143C158.857 19.062 158.927 19.4364 158.82 19.7067C158.781 19.8024 158.699 19.946 158.441 20.0502C158.153 20.1656 158.013 20.495 158.131 20.7824C158.218 21.0017 158.429 21.1343 158.651 21.1343C158.722 21.1343 158.795 21.12 158.862 21.0921C159.344 20.8978 159.692 20.5572 159.866 20.1124C160.215 19.2284 159.777 18.2346 159.723 18.1248C159.658 17.9841 159.54 17.8715 159.394 17.8208L156.117 16.7031L155.923 15.3487C155.883 15.0731 155.647 14.8166 155.368 14.8166H142.547V13.2288C142.547 12.9189 142.296 12.5645 141.984 12.5645H138.662L145.157 8.09949C145.32 7.98716 145.41 7.84893 145.399 7.65186C145.385 7.45789 145.272 7.28053 145.098 7.19017L135.93 2.39019L137.179 0.974124C137.384 0.74046 137.362 0.38574 137.128 0.180228C136.898 -0.0250031 136.54 -0.00248118 136.335 0.228087L134.808 1.95946L133.342 0.20275C133.142 -0.0365456 132.788 -0.0703284 132.549 0.129553C132.31 0.329435 132.279 0.68134 132.479 0.920635L133.663 2.33951L124.599 7.1789C124.428 7.27181 124.315 7.43509 124.304 7.62934C124.292 7.82641 124.383 7.98716 124.543 8.09949L131.03 12.5645H127.637C127.328 12.5645 127.075 12.9192 127.075 13.2288V14.8166H82.0153C81.7228 14.8166 81.478 15.0925 81.4555 15.3881L80.0018 33.9884ZM81.1638 33.5101L81.5236 28.8931H87.0203L89.2116 31.5085C89.3185 31.6351 89.4761 31.7083 89.642 31.7083H149.467C149.687 31.7083 149.886 31.5788 149.979 31.379L151.371 28.3301H156.612C156.64 28.3301 156.665 28.3779 156.694 28.3723L156.86 29.5575L155.276 30.1966C155.065 30.2841 154.925 30.4893 154.925 30.7202V33.4732L81.4254 33.4676C81.3298 33.4679 81.2423 33.4679 81.1638 33.5101ZM81.6111 27.767L82.3816 17.9137H85.7238V27.767H81.6111ZM82.4691 16.7876L82.5366 15.943H154.882L155.006 16.7876H82.4691ZM86.849 27.767V17.9137H154.59L152.666 19.1299C152.497 19.2309 152.393 19.4646 152.393 19.6619V27.204H151.012C150.789 27.204 150.59 27.3335 150.5 27.5333L149.104 30.5822H89.9039L87.7126 27.9669C87.6057 27.8402 87.4484 27.767 87.2825 27.767H86.849ZM94.9843 36.9587C94.9843 35.8999 95.8451 35.0388 96.9056 35.0388C97.9633 35.0388 98.8238 35.9002 98.8238 36.9587C98.8238 38.0173 97.963 38.8785 96.9056 38.8785C95.8451 38.8787 94.9843 38.0173 94.9843 36.9587ZM98.8463 34.5627L107.856 34.5599C107.488 34.8667 107.193 35.3679 107.001 35.6494H99.6733C99.6846 35.6691 99.6928 35.6888 99.7015 35.7085C99.6705 35.6972 99.4089 35.6578 99.3783 35.6494H99.6736C99.4821 35.2274 99.1979 34.8555 98.8463 34.5627ZM106.793 37.3388H99.9071C99.9324 37.3388 99.949 37.0207 99.949 36.8574C99.949 36.8293 99.9434 36.7758 99.9434 36.7758H106.757C106.754 36.7758 106.751 36.8293 106.751 36.8574C106.751 37.0207 106.768 37.3388 106.793 37.3388ZM107.876 36.9587C107.876 35.8999 108.737 35.0388 109.795 35.0388C110.852 35.0388 111.713 35.9002 111.713 36.9587C111.713 38.0173 110.852 38.8785 109.795 38.8785C108.737 38.8785 107.876 38.0173 107.876 36.9587ZM132.972 12.5926L125.942 7.74758L134.752 3.03516C134.755 3.03797 134.758 3.03206 134.76 3.03516C134.766 3.03797 134.769 3.02671 134.772 3.02925L143.754 7.70535L136.69 12.5645H132.997C132.988 12.5647 132.98 12.5985 132.972 12.5926ZM126.76 36.9587C126.76 35.8999 127.618 35.0388 128.679 35.0388C129.737 35.0388 130.597 35.9002 130.597 36.9587C130.597 38.0173 129.736 38.8785 128.679 38.8785C127.618 38.8787 126.76 38.0173 126.76 36.9587ZM128.201 14.8169V13.6908H141.422V14.8169H128.201ZM130.609 34.5545L139.641 34.5514C139.267 34.8586 138.969 35.3679 138.775 35.6494C138.775 35.6494 131.5 35.686 131.469 35.6916C131.275 35.2386 130.983 34.8642 130.609 34.5545ZM138.567 37.3388H131.68C131.706 37.3388 131.723 37.0207 131.723 36.8574C131.723 36.8293 131.72 36.7758 131.717 36.7758H138.53C138.527 36.7758 138.524 36.8293 138.524 36.8574C138.524 37.0207 138.541 37.3388 138.567 37.3388ZM139.649 36.9587C139.649 35.8999 140.51 35.0388 141.568 35.0388C142.625 35.0388 143.486 35.9002 143.486 36.9587C143.486 38.0173 142.625 38.8785 141.568 38.8785C140.51 38.8785 139.649 38.0173 139.649 36.9587ZM153.518 27.204V19.9801L155.298 18.8512L156.531 27.204H153.518ZM156.05 33.3975V31.1002L157.028 30.6667L157.433 33.3975H156.05Z" fill="#1C2F4A"/>
<path d="M81.5231 28.8938L81.1633 33.5108C81.2418 33.4686 81.3293 33.4686 81.4249 33.4686L154.924 33.4742V30.7212C154.924 30.4903 155.065 30.2848 155.276 30.1976L156.859 29.5585L156.693 28.3733C156.665 28.3789 156.64 28.3311 156.612 28.3311H151.371L149.979 31.38C149.886 31.5798 149.686 31.7093 149.467 31.7093H89.6418C89.4759 31.7093 89.3183 31.6361 89.2114 31.5095L87.0201 28.8941H81.5231V28.8938Z" fill="#FDCD08"/>
<path d="M82.3805 17.915L81.61 27.7684H85.7227V17.915H82.3805Z" fill="#72B6E5"/>
<path d="M82.5344 15.9443L82.4669 16.7889H155.004L154.88 15.9443H82.5344Z" fill="#FDCD08"/>
<path d="M89.0994 21.7859V25.868C89.0994 27.3854 90.3256 28.6128 91.8421 28.6128H97.8929C99.4063 28.6128 100.633 27.3854 100.633 25.868V21.7859C100.633 20.2685 99.4063 19.041 97.8929 19.041H91.8421C90.3256 19.041 89.0994 20.2685 89.0994 21.7859ZM90.2246 25.868V21.7859C90.2246 20.8906 90.9472 20.1671 91.8421 20.1671H97.8929C98.7847 20.1671 99.5076 20.8906 99.5076 21.7859V25.868C99.5076 26.7632 98.7847 27.4867 97.8929 27.4867H91.8421C90.9472 27.4867 90.2246 26.7629 90.2246 25.868Z" fill="#1C2F4A"/>
<path d="M90.2248 21.7858V25.8678C90.2248 26.7631 90.9475 27.4866 91.8423 27.4866H97.8931C98.7849 27.4866 99.5078 26.7631 99.5078 25.8678V21.7858C99.5078 20.8905 98.7849 20.167 97.8931 20.167H91.8423C90.9475 20.167 90.2248 20.8905 90.2248 21.7858Z" fill="#2B7DBE"/>
<path d="M96.906 35.0391C95.8452 35.0391 94.9847 35.9005 94.9847 36.9591C94.9847 38.0176 95.8455 38.8788 96.906 38.8788C97.9637 38.8788 98.8242 38.0173 98.8242 36.9591C98.8242 35.9002 97.9637 35.0391 96.906 35.0391ZM95.747 36.9478C95.747 36.3876 96.2056 35.9287 96.7654 35.9287C97.328 35.9287 97.7834 36.3876 97.7834 36.9478C97.7834 37.5108 97.328 37.9669 96.7654 37.9669C96.2056 37.9669 95.747 37.5108 95.747 36.9478Z" fill="#72B6E5"/>
<path d="M96.7671 35.9297C96.2073 35.9297 95.7488 36.3886 95.7488 36.9488C95.7488 37.5119 96.2073 37.9679 96.7671 37.9679C97.3297 37.9679 97.7852 37.5119 97.7852 36.9488C97.7852 36.3886 97.3297 35.9297 96.7671 35.9297Z" fill="#1C2F4A"/>
<path d="M99.6753 35.6504H99.3799C99.4106 35.6588 99.6722 35.6982 99.7031 35.7095C99.6947 35.6895 99.6865 35.6701 99.6753 35.6504Z" fill="#1C2F4A"/>
<path d="M99.9069 37.3394H106.793C106.768 37.3394 106.751 37.0213 106.751 36.858C106.751 36.8299 106.754 36.7764 106.757 36.7764H99.9435C99.9435 36.7764 99.9491 36.8299 99.9491 36.858C99.9489 37.0213 99.9323 37.3394 99.9069 37.3394Z" fill="#FDCD08"/>
<path d="M101.474 21.7859V25.868C101.474 27.3854 102.701 28.6128 104.217 28.6128H110.268C111.781 28.6128 113.008 27.3854 113.008 25.868V21.7859C113.008 20.2685 111.781 19.041 110.268 19.041H104.217C102.701 19.041 101.474 20.2685 101.474 21.7859ZM102.6 25.868V21.7859C102.6 20.8906 103.322 20.1671 104.217 20.1671H110.268C111.16 20.1671 111.883 20.8906 111.883 21.7859V25.868C111.883 26.7632 111.16 27.4867 110.268 27.4867H104.217C103.322 27.4867 102.6 26.7629 102.6 25.868Z" fill="#1C2F4A"/>
<path d="M102.6 21.7858V25.8678C102.6 26.7631 103.322 27.4866 104.217 27.4866H110.268C111.16 27.4866 111.883 26.7631 111.883 25.8678V21.7858C111.883 20.8905 111.16 20.167 110.268 20.167H104.217C103.322 20.167 102.6 20.8905 102.6 21.7858Z" fill="#2B7DBE"/>
<path d="M109.796 35.0391C108.739 35.0391 107.878 35.9005 107.878 36.9591C107.878 38.0176 108.739 38.8788 109.796 38.8788C110.854 38.8788 111.715 38.0173 111.715 36.9591C111.715 35.9002 110.854 35.0391 109.796 35.0391ZM108.688 36.9478C108.688 36.3876 109.147 35.9287 109.707 35.9287C110.269 35.9287 110.725 36.3876 110.725 36.9478C110.725 37.5108 110.269 37.9669 109.707 37.9669C109.147 37.9669 108.688 37.5108 108.688 36.9478Z" fill="#72B6E5"/>
<path d="M109.705 35.9297C109.145 35.9297 108.686 36.3886 108.686 36.9488C108.686 37.5119 109.145 37.9679 109.705 37.9679C110.267 37.9679 110.723 37.5119 110.723 36.9488C110.723 36.3886 110.267 35.9297 109.705 35.9297Z" fill="#1C2F4A"/>
<path d="M113.853 21.7859V25.868C113.853 27.3854 115.079 28.6128 116.596 28.6128H122.647C124.16 28.6128 125.387 27.3854 125.387 25.868V21.7859C125.387 20.2685 124.16 19.041 122.647 19.041H116.596C115.079 19.041 113.853 20.2685 113.853 21.7859ZM114.978 25.868V21.7859C114.978 20.8906 115.701 20.1671 116.596 20.1671H122.647C123.539 20.1671 124.262 20.8906 124.262 21.7859V25.868C124.262 26.7632 123.539 27.4867 122.647 27.4867H116.596C115.701 27.4867 114.978 26.7629 114.978 25.868Z" fill="#1C2F4A"/>
<path d="M114.416 36.7764C114.106 36.7764 113.853 37.0297 113.853 37.3394C113.853 37.6491 114.106 37.9025 114.416 37.9025H123.98C124.292 37.9025 124.543 37.6491 124.543 37.3394C124.543 37.0297 124.292 36.7764 123.98 36.7764H114.416Z" fill="#1C2F4A"/>
<path d="M114.979 21.7858V25.8678C114.979 26.7631 115.701 27.4866 116.596 27.4866H122.647C123.539 27.4866 124.262 26.7631 124.262 25.8678V21.7858C124.262 20.8905 123.539 20.167 122.647 20.167H116.596C115.701 20.167 114.979 20.8905 114.979 21.7858Z" fill="#2B7DBE"/>
<path d="M126.228 21.7859V25.868C126.228 27.3854 127.454 28.6128 128.971 28.6128H135.022C136.535 28.6128 137.762 27.3854 137.762 25.868V21.7859C137.762 20.2685 136.535 19.041 135.022 19.041H128.971C127.454 19.041 126.228 20.2685 126.228 21.7859ZM127.353 25.868V21.7859C127.353 20.8906 128.076 20.1671 128.971 20.1671H135.022C135.914 20.1671 136.637 20.8906 136.637 21.7859V25.868C136.637 26.7632 135.914 27.4867 135.022 27.4867H128.971C128.076 27.4867 127.353 26.7629 127.353 25.868Z" fill="#1C2F4A"/>
<path d="M128.679 35.0391C127.619 35.0391 126.761 35.9005 126.761 36.9591C126.761 38.0176 127.619 38.8788 128.679 38.8788C129.737 38.8788 130.598 38.0173 130.598 36.9591C130.598 35.9002 129.737 35.0391 128.679 35.0391ZM127.535 36.9478C127.535 36.3876 127.993 35.9287 128.553 35.9287C129.115 35.9287 129.571 36.3876 129.571 36.9478C129.571 37.5108 129.115 37.9669 128.553 37.9669C127.993 37.9669 127.535 37.5108 127.535 36.9478Z" fill="#72B6E5"/>
<path d="M127.358 21.7858V25.8678C127.358 26.7631 128.08 27.4866 128.975 27.4866H135.026C135.918 27.4866 136.641 26.7631 136.641 25.8678V21.7858C136.641 20.8905 135.918 20.167 135.026 20.167H128.975C128.08 20.167 127.358 20.8905 127.358 21.7858Z" fill="#2B7DBE"/>
<path d="M128.552 35.9297C127.992 35.9297 127.534 36.3886 127.534 36.9488C127.534 37.5119 127.992 37.9679 128.552 37.9679C129.115 37.9679 129.57 37.5119 129.57 36.9488C129.57 36.3886 129.115 35.9297 128.552 35.9297Z" fill="#1C2F4A"/>
<path d="M131.68 37.3394H138.566C138.541 37.3394 138.524 37.0213 138.524 36.858C138.524 36.8299 138.527 36.7764 138.53 36.7764H131.717C131.72 36.7764 131.723 36.8299 131.723 36.858C131.723 37.0213 131.706 37.3394 131.68 37.3394Z" fill="#FDCD08"/>
<path d="M138.326 21.7859V25.868C138.326 27.3854 139.552 28.6128 141.069 28.6128H147.119C148.633 28.6128 149.859 27.3854 149.859 25.868V21.7859C149.859 20.2685 148.633 19.041 147.119 19.041H141.069C139.552 19.041 138.326 20.2685 138.326 21.7859ZM139.451 25.868V21.7859C139.451 20.8906 140.174 20.1671 141.069 20.1671H147.119C148.011 20.1671 148.734 20.8906 148.734 21.7859V25.868C148.734 26.7632 148.011 27.4867 147.119 27.4867H141.069C140.174 27.4867 139.451 26.7629 139.451 25.868Z" fill="#1C2F4A"/>
<path d="M139.451 21.7858V25.8678C139.451 26.7631 140.174 27.4866 141.069 27.4866H147.12C148.011 27.4866 148.734 26.7631 148.734 25.8678V21.7858C148.734 20.8905 148.011 20.167 147.12 20.167H141.069C140.174 20.167 139.451 20.8905 139.451 21.7858Z" fill="#2B7DBE"/>
<path d="M141.566 35.0391C140.508 35.0391 139.647 35.9005 139.647 36.9591C139.647 38.0176 140.508 38.8788 141.566 38.8788C142.623 38.8788 143.484 38.0173 143.484 36.9591C143.484 35.9002 142.623 35.0391 141.566 35.0391ZM140.472 36.9478C140.472 36.3876 140.93 35.9287 141.49 35.9287C142.053 35.9287 142.508 36.3876 142.508 36.9478C142.508 37.5108 142.053 37.9669 141.49 37.9669C140.93 37.9669 140.472 37.5108 140.472 36.9478Z" fill="#72B6E5"/>
<path d="M141.494 35.9297C140.934 35.9297 140.475 36.3886 140.475 36.9488C140.475 37.5119 140.934 37.9679 141.494 37.9679C142.056 37.9679 142.512 37.5119 142.512 36.9488C142.512 36.3886 142.056 35.9297 141.494 35.9297Z" fill="#1C2F4A"/>
<path d="M153.518 19.9814V27.2053H156.531L155.299 18.8525L153.518 19.9814Z" fill="#2B7DBE"/>
</g>
<path d="M1.52311 28.8938L1.16332 33.5108C1.24181 33.4686 1.32929 33.4686 1.42493 33.4686L74.924 33.4742V30.7212C74.924 30.4903 75.0647 30.2848 75.2756 30.1976L76.8594 29.5585L76.6934 28.3733C76.665 28.3789 76.64 28.3311 76.6118 28.3311H71.3709L69.9787 31.38C69.8859 31.5798 69.6861 31.7093 69.4667 31.7093H9.64182C9.47585 31.7093 9.31832 31.6361 9.21143 31.5095L7.02007 28.8941H1.52311V28.8938Z" fill="#FDCD08"/>
<path d="M2.38049 17.915L1.60999 27.7684H5.72266V17.915H2.38049Z" fill="#72B6E5"/>
<path d="M2.53443 15.9443L2.46691 16.7889H75.0039L74.8801 15.9443H2.53443Z" fill="#FDCD08"/>
<path d="M9.09936 21.7859V25.868C9.09936 27.3854 10.3256 28.6128 11.8421 28.6128H17.8929C19.4063 28.6128 20.6328 27.3854 20.6328 25.868V21.7859C20.6328 20.2685 19.4063 19.041 17.8929 19.041H11.8421C10.3256 19.041 9.09936 20.2685 9.09936 21.7859ZM10.2246 25.868V21.7859C10.2246 20.8906 10.9472 20.1671 11.8421 20.1671H17.8929C18.7847 20.1671 19.5076 20.8906 19.5076 21.7859V25.868C19.5076 26.7632 18.7847 27.4867 17.8929 27.4867H11.8421C10.9472 27.4867 10.2246 26.7629 10.2246 25.868Z" fill="#1C2F4A"/>
<path d="M10.2248 21.7858V25.8678C10.2248 26.7631 10.9475 27.4866 11.8423 27.4866H17.8931C18.7849 27.4866 19.5078 26.7631 19.5078 25.8678V21.7858C19.5078 20.8905 18.7849 20.167 17.8931 20.167H11.8423C10.9475 20.167 10.2248 20.8905 10.2248 21.7858Z" fill="#2B7DBE"/>
<path d="M16.906 35.0391C15.8452 35.0391 14.9847 35.9005 14.9847 36.9591C14.9847 38.0176 15.8455 38.8788 16.906 38.8788C17.9637 38.8788 18.8242 38.0173 18.8242 36.9591C18.8242 35.9002 17.9637 35.0391 16.906 35.0391ZM15.747 36.9478C15.747 36.3876 16.2056 35.9287 16.7654 35.9287C17.328 35.9287 17.7834 36.3876 17.7834 36.9478C17.7834 37.5108 17.328 37.9669 16.7654 37.9669C16.2056 37.9669 15.747 37.5108 15.747 36.9478Z" fill="#72B6E5"/>
<path d="M16.7671 35.9297C16.2073 35.9297 15.7488 36.3886 15.7488 36.9488C15.7488 37.5119 16.2073 37.9679 16.7671 37.9679C17.3297 37.9679 17.7852 37.5119 17.7852 36.9488C17.7852 36.3886 17.3297 35.9297 16.7671 35.9297Z" fill="#1C2F4A"/>
<path d="M19.6753 35.6504H19.3799C19.4106 35.6588 19.6722 35.6982 19.7031 35.7095C19.6947 35.6895 19.6865 35.6701 19.6753 35.6504Z" fill="#1C2F4A"/>
<path d="M19.9069 37.3394H26.793C26.7677 37.3394 26.7511 37.0213 26.7511 36.858C26.7511 36.8299 26.7539 36.7764 26.7567 36.7764H19.9435C19.9435 36.7764 19.9491 36.8299 19.9491 36.858C19.9489 37.0213 19.9323 37.3394 19.9069 37.3394Z" fill="#FDCD08"/>
<path d="M21.4744 21.7859V25.868C21.4744 27.3854 22.7006 28.6128 24.2171 28.6128H30.2679C31.7813 28.6128 33.0078 27.3854 33.0078 25.868V21.7859C33.0078 20.2685 31.7813 19.041 30.2679 19.041H24.2171C22.7006 19.041 21.4744 20.2685 21.4744 21.7859ZM22.5996 25.868V21.7859C22.5996 20.8906 23.3222 20.1671 24.2171 20.1671H30.2679C31.1596 20.1671 31.8826 20.8906 31.8826 21.7859V25.868C31.8826 26.7632 31.1596 27.4867 30.2679 27.4867H24.2171C23.3222 27.4867 22.5996 26.7629 22.5996 25.868Z" fill="#1C2F4A"/>
<path d="M22.5998 21.7858V25.8678C22.5998 26.7631 23.3225 27.4866 24.2173 27.4866H30.2681C31.1599 27.4866 31.8828 26.7631 31.8828 25.8678V21.7858C31.8828 20.8905 31.1599 20.167 30.2681 20.167H24.2173C23.3225 20.167 22.5998 20.8905 22.5998 21.7858Z" fill="#2B7DBE"/>
<path d="M29.7963 35.0391C28.7386 35.0391 27.8781 35.9005 27.8781 36.9591C27.8781 38.0176 28.7389 38.8788 29.7963 38.8788C30.8538 38.8788 31.7148 38.0173 31.7148 36.9591C31.7151 35.9002 30.8541 35.0391 29.7963 35.0391ZM28.6883 36.9478C28.6883 36.3876 29.1468 35.9287 29.7066 35.9287C30.2692 35.9287 30.7247 36.3876 30.7247 36.9478C30.7247 37.5108 30.2692 37.9669 29.7066 37.9669C29.1468 37.9669 28.6883 37.5108 28.6883 36.9478Z" fill="#72B6E5"/>
<path d="M29.7046 35.9297C29.1448 35.9297 28.6863 36.3886 28.6863 36.9488C28.6863 37.5119 29.1448 37.9679 29.7046 37.9679C30.2672 37.9679 30.7227 37.5119 30.7227 36.9488C30.7227 36.3886 30.2672 35.9297 29.7046 35.9297Z" fill="#1C2F4A"/>
<path d="M33.8532 21.7859V25.868C33.8532 27.3854 35.0795 28.6128 36.596 28.6128H42.6468C44.1602 28.6128 45.3867 27.3854 45.3867 25.868V21.7859C45.3867 20.2685 44.1602 19.041 42.6468 19.041H36.596C35.0795 19.041 33.8532 20.2685 33.8532 21.7859ZM34.9785 25.868V21.7859C34.9785 20.8906 35.7011 20.1671 36.596 20.1671H42.6468C43.5386 20.1671 44.2615 20.8906 44.2615 21.7859V25.868C44.2615 26.7632 43.5386 27.4867 42.6468 27.4867H36.596C35.7011 27.4867 34.9785 26.7629 34.9785 25.868Z" fill="#1C2F4A"/>
<path d="M34.416 36.7764C34.1063 36.7764 33.8534 37.0297 33.8534 37.3394C33.8534 37.6491 34.1063 37.9025 34.416 37.9025H43.9804C44.2923 37.9025 44.543 37.6491 44.543 37.3394C44.543 37.0297 44.2923 36.7764 43.9804 36.7764H34.416Z" fill="#1C2F4A"/>
<path d="M34.9787 21.7858V25.8678C34.9787 26.7631 35.7014 27.4866 36.5962 27.4866H42.647C43.5388 27.4866 44.2617 26.7631 44.2617 25.8678V21.7858C44.2617 20.8905 43.5388 20.167 42.647 20.167H36.5962C35.7014 20.167 34.9787 20.8905 34.9787 21.7858Z" fill="#2B7DBE"/>
<path d="M46.2283 21.7859V25.868C46.2283 27.3854 47.4545 28.6128 48.971 28.6128H55.0218C56.5352 28.6128 57.7617 27.3854 57.7617 25.868V21.7859C57.7617 20.2685 56.5352 19.041 55.0218 19.041H48.971C47.4545 19.041 46.2283 20.2685 46.2283 21.7859ZM47.3535 25.868V21.7859C47.3535 20.8906 48.0761 20.1671 48.971 20.1671H55.0218C55.9136 20.1671 56.6365 20.8906 56.6365 21.7859V25.868C56.6365 26.7632 55.9136 27.4867 55.0218 27.4867H48.971C48.0761 27.4867 47.3535 26.7629 47.3535 25.868Z" fill="#1C2F4A"/>
<path d="M48.6792 35.0391C47.6186 35.0391 46.7609 35.9005 46.7609 36.9591C46.7609 38.0176 47.6189 38.8788 48.6792 38.8788C49.7371 38.8788 50.5977 38.0173 50.5977 36.9591C50.5979 35.9002 49.7371 35.0391 48.6792 35.0391ZM47.5345 36.9478C47.5345 36.3876 47.9931 35.9287 48.5529 35.9287C49.1155 35.9287 49.5709 36.3876 49.5709 36.9478C49.5709 37.5108 49.1155 37.9669 48.5529 37.9669C47.9931 37.9669 47.5345 37.5108 47.5345 36.9478Z" fill="#72B6E5"/>
<path d="M47.3576 21.7858V25.8678C47.3576 26.7631 48.0803 27.4866 48.9751 27.4866H55.0259C55.9177 27.4866 56.6406 26.7631 56.6406 25.8678V21.7858C56.6406 20.8905 55.9177 20.167 55.0259 20.167H48.9751C48.0803 20.167 47.3576 20.8905 47.3576 21.7858Z" fill="#2B7DBE"/>
<path d="M48.5523 35.9297C47.9925 35.9297 47.534 36.3886 47.534 36.9488C47.534 37.5119 47.9925 37.9679 48.5523 37.9679C49.1149 37.9679 49.5703 37.5119 49.5703 36.9488C49.5703 36.3886 49.1149 35.9297 48.5523 35.9297Z" fill="#1C2F4A"/>
<path d="M51.6801 37.3394H58.5664C58.5411 37.3394 58.5242 37.0213 58.5242 36.858C58.5242 36.8299 58.5273 36.7764 58.5301 36.7764H51.7169C51.7197 36.7764 51.7226 36.8299 51.7226 36.858C51.7226 37.0213 51.7057 37.3394 51.6801 37.3394Z" fill="#FDCD08"/>
<path d="M58.3259 21.7859V25.868C58.3259 27.3854 59.5521 28.6128 61.0686 28.6128H67.1195C68.6329 28.6128 69.8594 27.3854 69.8594 25.868V21.7859C69.8594 20.2685 68.6329 19.041 67.1195 19.041H61.0686C59.5521 19.041 58.3259 20.2685 58.3259 21.7859ZM59.4511 25.868V21.7859C59.4511 20.8906 60.1738 20.1671 61.0686 20.1671H67.1195C68.0112 20.1671 68.7342 20.8906 68.7342 21.7859V25.868C68.7342 26.7632 68.0112 27.4867 67.1195 27.4867H61.0686C60.1738 27.4867 59.4511 26.7629 59.4511 25.868Z" fill="#1C2F4A"/>
<path d="M59.4513 21.7858V25.8678C59.4513 26.7631 60.174 27.4866 61.0688 27.4866H67.1197C68.0114 27.4866 68.7344 26.7631 68.7344 25.8678V21.7858C68.7344 20.8905 68.0114 20.167 67.1197 20.167H61.0688C60.174 20.167 59.4513 20.8905 59.4513 21.7858Z" fill="#2B7DBE"/>
<path d="M61.5659 35.0391C60.5082 35.0391 59.6474 35.9005 59.6474 36.9591C59.6474 38.0176 60.5085 38.8788 61.5659 38.8788C62.6233 38.8788 63.4844 38.0173 63.4844 36.9591C63.4844 35.9002 62.6233 35.0391 61.5659 35.0391ZM60.4716 36.9478C60.4716 36.3876 60.9301 35.9287 61.4899 35.9287C62.0525 35.9287 62.508 36.3876 62.508 36.9478C62.508 37.5108 62.0525 37.9669 61.4899 37.9669C60.9301 37.9669 60.4716 37.5108 60.4716 36.9478Z" fill="#72B6E5"/>
<path d="M61.4937 35.9297C60.9339 35.9297 60.4754 36.3886 60.4754 36.9488C60.4754 37.5119 60.9339 37.9679 61.4937 37.9679C62.0563 37.9679 62.5117 37.5119 62.5117 36.9488C62.5117 36.3886 62.0563 35.9297 61.4937 35.9297Z" fill="#1C2F4A"/>
<path d="M73.5185 19.9814V27.2053H76.5312L75.2989 18.8525L73.5185 19.9814Z" fill="#2B7DBE"/>
<path fill-rule="evenodd" clip-rule="evenodd" d="M47.6371 12.5645C47.3274 12.5645 47.0745 12.9192 47.0745 13.2288V14.8166H2.01496C1.72241 14.8166 1.47766 15.0925 1.4552 15.3881L0.00140611 33.9884C-0.0067726 34.1038 0.0211205 34.2055 0.0748314 34.2984C0.0804466 34.3603 0.0942406 34.4107 0.122622 34.4729L1.59638 37.6257C1.68921 37.8258 1.88898 37.9016 2.10584 37.9016H12.1934C12.5054 37.9016 12.756 37.6482 12.756 37.3385C12.756 37.0289 12.5054 36.7755 12.1934 36.7755H2.46588L1.45886 34.5683C1.46167 34.5683 1.4895 34.6021 1.50385 34.6134L14.998 34.6021C14.3285 35.1621 13.8587 35.99 13.8587 36.9329C13.8587 38.6107 15.2256 39.9536 16.9052 39.9536C17.9908 39.9536 18.9447 39.3089 19.4848 38.4643H27.2147C27.752 39.3089 28.7056 39.9508 29.7943 39.9508C31.4739 39.9508 32.838 38.633 32.838 36.9551C32.838 36.012 32.4076 35.1649 31.7325 34.6044L46.7426 34.5931C46.0646 35.1533 45.6345 35.9867 45.6345 36.9326C45.6345 38.6105 46.9988 39.9533 48.6779 39.9533C49.7638 39.9533 50.7174 39.3086 51.2575 38.4641H58.8898C58.9047 38.4641 58.9196 38.4739 58.9346 38.4838C58.9506 38.4944 58.9666 38.5049 58.9824 38.5035C59.5197 39.3677 60.4764 39.9986 61.5676 39.9986C63.247 39.9986 64.6113 38.6248 64.6113 36.9438C64.6113 35.9954 64.1752 35.1336 63.4942 34.5765L77.0277 34.5455L75.6015 36.7752H66.2034C65.8937 36.7752 65.6408 37.0286 65.6408 37.3382C65.6408 37.6479 65.8937 37.9013 66.2034 37.9013H75.9113C76.105 37.9013 76.2853 37.8534 76.3895 37.6873L78.5217 34.3344C78.603 34.2021 78.6286 34.047 78.592 33.9008C78.6089 33.8361 78.6115 33.7657 78.6002 33.6953C77.682 27.4157 76.697 20.7603 75.9225 15.3487C75.8828 15.0731 75.6468 14.8166 75.368 14.8166H62.5465V13.2288C62.5465 12.9189 62.2958 12.5645 61.9839 12.5645C57.2015 12.5645 52.4194 12.5645 47.6371 12.5645ZM1.52326 28.8931L1.16345 33.5101C1.24146 33.4681 1.32831 33.4679 1.42322 33.4676L74.9241 33.4732V30.7202C74.9241 30.4893 75.0648 30.2841 75.2758 30.1966L76.8595 29.5575L76.6935 28.3723C76.6785 28.3753 76.6645 28.3633 76.6504 28.3514C76.6378 28.3407 76.6252 28.3301 76.6119 28.3301H71.371L69.9788 31.379C69.886 31.5788 69.6863 31.7083 69.4669 31.7083H9.64166C9.47571 31.7083 9.31818 31.6351 9.21131 31.5085L7.0199 28.8931H1.52326ZM2.38123 17.9137L1.61072 27.767H5.72339V17.9137H2.38123ZM2.53626 15.943L2.46869 16.7876H75.0057L74.882 15.943H2.53626ZM6.84864 17.9137V27.767H7.28211C7.44806 27.767 7.60535 27.8402 7.71222 27.9669L9.90357 30.5822H69.1039L70.4992 27.5333C70.5892 27.3335 70.789 27.204 71.0112 27.204H72.3924V19.6619C72.3924 19.4646 72.4962 19.2309 72.6653 19.1299L74.5894 17.9137H6.84864ZM16.9052 35.0388C15.8447 35.0388 14.9839 35.8999 14.9839 36.9588C14.9839 38.0173 15.8447 38.8787 16.9052 38.8785C17.9626 38.8785 18.8234 38.0173 18.8234 36.9588C18.8234 35.9002 17.963 35.0388 16.9052 35.0388ZM27.8561 34.5599L18.8459 34.5627C19.1976 34.8555 19.4814 35.2274 19.673 35.6494H19.3779C19.3909 35.653 19.4454 35.6621 19.5063 35.6723C19.589 35.6862 19.6833 35.702 19.7011 35.7085L19.6971 35.6995C19.6898 35.6828 19.6825 35.6661 19.673 35.6494H27.0009C27.0328 35.6025 27.0675 35.5495 27.105 35.4924C27.2925 35.2064 27.5487 34.8157 27.8561 34.5599ZM19.9067 37.3388H26.7928C26.7678 37.3388 26.7509 37.0207 26.7506 36.8574C26.7506 36.8293 26.7534 36.7758 26.7562 36.7758H19.9431C19.9431 36.7758 19.9449 36.7936 19.9465 36.8142C19.9477 36.8291 19.9487 36.8455 19.9487 36.8574C19.9487 37.0207 19.9321 37.3388 19.9067 37.3388ZM29.7943 35.0388C28.7369 35.0388 27.8761 35.8999 27.8761 36.9588C27.8761 38.0173 28.7369 38.8785 29.7943 38.8785C30.8517 38.8785 31.7128 38.0173 31.7128 36.9588C31.7128 35.9002 30.8517 35.0388 29.7943 35.0388ZM48.6782 35.0388C47.618 35.0388 46.76 35.8999 46.76 36.9588C46.76 38.0173 47.618 38.8787 48.6782 38.8785C49.7359 38.8785 50.5967 38.0173 50.5967 36.9588C50.5967 35.9002 49.7362 35.0388 48.6782 35.0388ZM48.2003 13.6908V14.8169H61.4216V13.6908H48.2003ZM59.6409 34.5514L50.6082 34.5545C50.9824 34.8642 51.2749 35.2386 51.4688 35.6916C51.4999 35.686 58.7745 35.6494 58.7745 35.6494C58.8092 35.599 58.8473 35.5412 58.8886 35.4787C59.0777 35.1919 59.3338 34.8036 59.6409 34.5514ZM51.68 37.3388H58.5663C58.541 37.3388 58.5239 37.0207 58.5239 36.8574C58.5239 36.8293 58.5269 36.7758 58.5297 36.7758H51.7166C51.7194 36.7758 51.7222 36.8293 51.7222 36.8574C51.7222 37.0207 51.7056 37.3388 51.68 37.3388ZM61.5676 35.0388C60.5101 35.0388 59.6491 35.8999 59.6491 36.9588C59.6491 38.0173 60.5101 38.8785 61.5676 38.8785C62.625 38.8785 63.486 38.0173 63.486 36.9588C63.486 35.9002 62.625 35.0388 61.5676 35.0388ZM73.5176 19.9801V27.204H76.5304L75.298 18.8512L73.5176 19.9801ZM76.0494 31.1002V33.3975H77.4331L77.028 30.6667L76.0494 31.1002Z" fill="#1C2F4A"/>
<defs>
<clipPath id="clip0">
<rect width="80" height="40" fill="white" transform="matrix(-1 0 0 1 160 0)"/>
</clipPath>
</defs>
</svg>
