<svg width="15" height="15" viewBox="0 0 15 15" fill="none" xmlns="http://www.w3.org/2000/svg">
<g clip-path="url(#clip0)">
<path d="M14.4719 8.68313C14.9194 4.91625 14.2569 2.53813 13.0619 1.4625L13.0625 1.46188C11.1338 -0.375 4.62005 -0.646875 2.31255 1.54438C1.2763 2.61625 0.9113 4.18938 0.8713 6.13688C0.8313 8.085 0.7838 11.7344 4.18442 12.7244H4.18755L4.18442 14.2363C4.18442 14.2363 4.1613 14.8488 4.55255 14.9719C5.00005 15.1169 5.20255 14.8325 6.59442 13.17C8.92192 13.3719 10.7094 12.9094 10.9125 12.8419C11.3825 12.6844 14.0419 12.3325 14.4719 8.68313ZM6.8238 12.1063C6.8238 12.1063 5.35067 13.9431 4.89255 14.42C4.74255 14.575 4.57817 14.5606 4.58067 14.2531C4.58067 14.0513 4.59192 11.7431 4.59192 11.7431C1.7088 10.9169 1.8788 7.80938 1.91005 6.18375C1.9413 4.5575 2.2388 3.22563 3.1163 2.32875C5.14067 0.430625 10.8513 0.855 12.3063 2.2225C14.085 3.79938 13.4519 8.25438 13.4557 8.40625C13.09 11.4525 10.935 11.6456 10.5388 11.7775C10.3694 11.8338 8.79755 12.2381 6.8238 12.1063Z" fill="black"/>
<path d="M7.63872 2.68562C7.3981 2.68562 7.3981 3.06062 7.63872 3.06375C9.5056 3.07812 11.0431 4.37937 11.06 6.76625C11.06 7.01812 11.4287 7.015 11.4256 6.76312H11.425C11.405 4.19125 9.72622 2.7 7.63872 2.68562Z" fill="black"/>
<path d="M10.0943 6.37063C10.0887 6.61938 10.4568 6.63125 10.46 6.37938C10.4906 4.96125 9.61621 3.79312 7.97309 3.67C7.73246 3.6525 7.70746 4.03062 7.94746 4.04812C9.37246 4.15625 10.1231 5.12875 10.0943 6.37063Z" fill="black"/>
<path d="M9.70063 7.98375C9.39188 7.805 9.07751 7.91625 8.94751 8.09188L8.67563 8.44375C8.53751 8.6225 8.27938 8.59875 8.27938 8.59875C6.39563 8.10063 5.89188 6.12938 5.89188 6.12938C5.89188 6.12938 5.86876 5.8625 6.04126 5.71938L6.38126 5.43813C6.55126 5.30313 6.65876 4.97812 6.48563 4.65875C6.02313 3.82312 5.71251 3.535 5.55439 3.31375C5.38814 3.10563 5.13814 3.05875 4.87814 3.19938H4.87251C4.33189 3.51562 3.74001 4.1075 3.92939 4.71687C4.25251 5.35938 4.84626 7.4075 6.73876 8.955C7.62813 9.68688 9.03563 10.4369 9.63313 10.61L9.63876 10.6188C10.2275 10.815 10.8 10.2 11.1056 9.64313V9.63875C11.2413 9.36938 11.1963 9.11438 10.9981 8.9475C10.6469 8.605 10.1169 8.22688 9.70063 7.98375Z" fill="black"/>
<path d="M8.23059 5.065C8.83122 5.1 9.12247 5.41375 9.15372 6.05813C9.16497 6.31 9.5306 6.2925 9.51935 6.04063C9.47935 5.19938 9.0406 4.73063 8.25059 4.68688C8.00997 4.6725 7.98747 5.05063 8.23059 5.065Z" fill="black"/>
</g>
<defs>
<clipPath id="clip0">
<rect width="15" height="15" fill="white"/>
</clipPath>
</defs>
</svg>
