<?xml version="1.0" encoding="utf-8"?>
<!-- Generator: Adobe Illustrator 24.0.2, SVG Export Plug-In . SVG Version: 6.00 Build 0)  -->
<svg version="1.1" id="Layer_1" xmlns="http://www.w3.org/2000/svg" xmlns:xlink="http://www.w3.org/1999/xlink" x="0px" y="0px"
	 viewBox="0 0 25 25" style="enable-background:new 0 0 25 25;" xml:space="preserve">
<style type="text/css">
	.st0{fill:none;stroke:#282E33;}
	.st1{fill:#282E33;}
</style>
<path class="st0" d="M4.4,15.6c2.4,1.9,5.2,2.9,8.1,2.9s5.7-1,8.1-2.9c1.8-1.5,2.7-2.9,2.7-2.9l0,0l0.1-0.1l-0.1-0.1l0,0
	c0,0-1-1.5-2.7-2.9c-2.4-1.9-5.2-2.9-8.1-2.9s-5.7,1-8.1,2.9c-1.8,1.4-2.8,2.9-2.8,2.9l0,0l-0.1,0.1l0.1,0.1l0,0
	C1.7,12.7,2.6,14.1,4.4,15.6z"/>
<polygon class="st1" points="1,24 1,21 0,21 0,24 0,25 1,25 4,25 4,24 "/>
<polygon class="st1" points="24,24 24,21 25,21 25,24 25,25 24,25 21,25 21,24 "/>
<polygon class="st1" points="1,1 1,4 0,4 0,1 0,0 1,0 4,0 4,1 "/>
<polygon class="st1" points="24,1 24,4 25,4 25,1 25,0 24,0 21,0 21,1 "/>
<circle class="st0" cx="12.5" cy="12.5" r="3"/>
</svg>
