<svg width="16" height="17" viewBox="0 0 16 17" fill="none" xmlns="http://www.w3.org/2000/svg">
<g clip-path="url(#clip0)">
<path d="M7.21251 11.7699C5.97213 11.6405 4.85375 11.335 3.89624 10.5861C3.77744 10.493 3.65477 10.4031 3.54635 10.2991C3.12725 9.89657 3.08503 9.43558 3.41665 8.96051C3.70035 8.55398 4.17659 8.44522 4.6716 8.67865C4.76745 8.7239 4.85878 8.78037 4.94625 8.84103C6.73073 10.0672 9.18215 10.101 10.9733 8.89616C11.1508 8.76009 11.3405 8.64916 11.5603 8.59252C11.9878 8.48276 12.3865 8.63978 12.6159 9.0138C12.878 9.44094 12.8746 9.85786 12.5517 10.1895C12.0564 10.6979 11.4606 11.0657 10.7987 11.3224C10.1728 11.5651 9.4873 11.6873 8.8088 11.7684C8.91119 11.8798 8.95945 11.9346 9.02346 11.9989C9.94478 12.9246 10.8701 13.8464 11.7884 14.7749C12.1013 15.0913 12.1666 15.4836 11.9944 15.8516C11.806 16.2538 11.3844 16.5184 10.971 16.49C10.7091 16.472 10.5048 16.3416 10.3233 16.1588C9.62806 15.4591 8.91974 14.7724 8.23855 14.0596C8.04031 13.8523 7.94497 13.8915 7.77002 14.0715C7.07057 14.7915 6.35973 15.5005 5.6447 16.2055C5.32363 16.5221 4.94156 16.579 4.56922 16.3982C4.17341 16.2063 3.92155 15.8023 3.94099 15.3963C3.95439 15.1217 4.08946 14.9118 4.27798 14.7237C5.18974 13.8132 6.09899 12.9005 7.00857 11.9885C7.06873 11.9279 7.12487 11.8635 7.21251 11.7699Z" fill="#282E33"/>
<path d="M7.96805 8.59854C5.75525 8.591 3.94078 6.75658 3.95368 4.54026C3.96642 2.29948 5.78207 0.49372 8.01665 0.499921C10.2558 0.505953 12.053 2.33769 12.0417 4.60176C12.0303 6.81355 10.2033 8.60625 7.96805 8.59854ZM9.97909 4.54563C9.97523 3.44518 9.09883 2.56911 8.00056 2.5681C6.89307 2.56693 6.00879 3.45892 6.01734 4.56942C6.02555 5.66568 6.90949 6.53555 8.01078 6.53153C9.10872 6.52767 9.98277 5.64591 9.97909 4.54563Z" fill="#282E33"/>
</g>
<defs>
<clipPath id="clip0">
<rect y="0.5" width="16" height="16" fill="white"/>
</clipPath>
</defs>
</svg>
