<svg version="1.1" 
  xmlns="http://www.w3.org/2000/svg" 
  xmlns:xlink="http://www.w3.org/1999/xlink">

  <symbol id="search" viewBox="0 0 15 15" fill="none">
    <circle cx="5.62854" cy="5.62857" r="4.98571"/>
    <path d="M13.8571 13.8571L9.28564 9.28571"/>
  </symbol>

  <symbol id="team" viewBox="0 0 18 18">
    <path d="M15.5264 12.2379C15.7205 12.2379 15.8779 12.0805 15.8779 11.8864C15.8779 11.6922 15.7205 11.5348 15.5264 11.5348C15.3322 11.5348 15.1748 11.6922 15.1748 11.8864C15.1748 12.0805 15.3322 12.2379 15.5264 12.2379Z"/>
    <path d="M2.14331 12.2379C2.33747 12.2379 2.49487 12.0805 2.49487 11.8864C2.49487 11.6922 2.33747 11.5348 2.14331 11.5348C1.94915 11.5348 1.79175 11.6922 1.79175 11.8864C1.79175 12.0805 1.94915 12.2379 2.14331 12.2379Z"/>
    <path d="M17.3777 17.2967H14.3586L14.3401 8.65631C14.3397 8.46236 14.1824 8.30545 13.9885 8.30545C13.9883 8.30545 13.988 8.30545 13.9877 8.30545C13.7935 8.30587 13.6365 8.46362 13.6369 8.65782L13.6553 17.2967H12.6341L12.6251 13.4525C12.6246 13.2585 12.4673 13.1017 12.2735 13.1017C12.2732 13.1017 12.2729 13.1017 12.2726 13.1017C12.0784 13.1021 11.9213 13.2599 11.9218 13.4541L11.9309 17.2967H11.0771V12.6435C12.0724 12.5555 12.8549 11.7376 12.8549 10.7445V7.33697C12.8549 6.79514 12.7399 6.26404 12.52 5.77354C13.2144 5.81991 13.8608 6.10242 14.358 6.58259C14.9022 7.10803 15.2027 7.80673 15.2043 8.55032L15.2107 10.5513C15.2113 10.7451 15.3686 10.9018 15.5623 10.9018C15.5627 10.9018 15.5631 10.9018 15.5634 10.9018C15.7576 10.9011 15.9146 10.7432 15.914 10.549L15.9075 8.54845C15.9055 7.6133 15.5287 6.73548 14.8465 6.07672C14.4568 5.70045 13.994 5.42176 13.4896 5.2527C13.8469 4.91263 14.0698 4.43275 14.0687 3.90175C14.0665 2.87722 13.2323 2.04525 12.2083 2.04525C12.2069 2.04525 12.2056 2.04525 12.2043 2.04525C11.9059 2.04592 11.6093 2.11897 11.3464 2.25654C11.1744 2.34661 11.1079 2.55909 11.198 2.73115C11.2881 2.9032 11.5006 2.96968 11.6726 2.87961C11.838 2.79302 12.0174 2.7489 12.2058 2.74848C12.8449 2.74816 13.3641 3.26514 13.3655 3.90322C13.3669 4.54131 12.8489 5.06155 12.2108 5.06292C12.1956 5.06296 12.1808 5.06426 12.1662 5.06616C12.1475 5.06693 12.1288 5.0676 12.11 5.06865C11.602 4.3734 10.8888 3.86905 10.0766 3.61311C10.5078 3.23476 10.7809 2.68024 10.7809 2.06279C10.7807 0.925348 9.85541 0 8.718 0C7.58055 0 6.65521 0.925348 6.65521 2.06279C6.65521 2.71016 6.95523 3.28855 7.42327 3.66701C6.67767 3.93609 6.02426 4.41812 5.54972 5.06665C5.49403 5.06415 5.43841 5.06268 5.38308 5.06268C5.35678 5.06268 5.33055 5.0631 5.30436 5.06366C5.29793 5.06331 5.2916 5.06268 5.2851 5.06268C4.64701 5.06268 4.12789 4.54356 4.12789 3.90547C4.12789 3.26739 4.64701 2.74827 5.2851 2.74827C5.47796 2.74827 5.66876 2.79657 5.8368 2.88795C6.00742 2.98065 6.22089 2.91758 6.3137 2.74697C6.40644 2.57636 6.34334 2.36285 6.17272 2.27007C5.90188 2.1228 5.59493 2.04497 5.28506 2.04497C4.2592 2.04497 3.42459 2.87958 3.42459 3.90544C3.42459 4.46407 3.67244 4.96561 4.06352 5.30694C2.73416 5.81955 1.79166 7.08275 1.79166 8.55608V10.5501C1.79166 10.7443 1.94909 10.9018 2.14329 10.9018C2.33749 10.9018 2.49492 10.7443 2.49492 10.5501V8.55608C2.49492 7.0978 3.65916 5.89806 5.1367 5.7768C4.91778 6.26636 4.80328 6.79627 4.80328 7.33697V10.7445C4.80328 11.7572 5.61704 12.5878 6.64037 12.6478V17.2967H5.68243V13.4532C5.68243 13.259 5.525 13.1015 5.3308 13.1015C5.1366 13.1015 4.97917 13.259 4.97917 13.4532V17.2967H4.11482V8.6606C4.11482 8.4664 3.95739 8.30897 3.76318 8.30897C3.56898 8.30897 3.41155 8.4664 3.41155 8.6606V17.2967H0.622324C0.428121 17.2967 0.270691 17.4542 0.270691 17.6484C0.270691 17.8426 0.428085 18 0.622324 18H17.3777C17.5719 18 17.7293 17.8426 17.7293 17.6484C17.7292 17.4542 17.5719 17.2967 17.3777 17.2967ZM7.35844 2.06279C7.35844 1.31316 7.96833 0.703266 8.71796 0.703266C9.4676 0.703266 10.0775 1.31316 10.0775 2.06279C10.0775 2.81243 9.46757 3.42232 8.71796 3.42232C7.96836 3.42232 7.35844 2.81243 7.35844 2.06279ZM10.7254 7.10388C10.5312 7.10388 10.3738 7.26131 10.3738 7.45552V17.2967H9.12145V12.4048C9.12145 12.2106 8.96402 12.0532 8.76982 12.0532C8.57562 12.0532 8.41819 12.2106 8.41819 12.4048V17.2968H7.34364V7.45552C7.34364 7.26131 7.18621 7.10388 6.992 7.10388C6.7978 7.10388 6.64037 7.26131 6.64037 7.45552V11.9429C6.0052 11.8852 5.50651 11.3699 5.50651 10.7445V7.337C5.50651 6.72845 5.68349 6.1361 6.01832 5.62405C6.63186 4.68577 7.68261 4.12559 8.82906 4.12559C9.9774 4.12559 11.0291 4.68721 11.6423 5.62795C11.9755 6.13912 12.1516 6.7301 12.1516 7.337V10.7445C12.1516 11.3503 11.6837 11.8528 11.0771 11.9361V7.45552C11.0771 7.26131 10.9196 7.10388 10.7254 7.10388Z"/>
  </symbol>

  <symbol id="lightning" viewBox="0 0 9 14" fill="none">
    <path d="M8.1102 0L0 7.96035H3.00816L0.695918 14L9 6.03915H5.99133L8.1102 0Z"/>
  </symbol>

  <symbol id="arrow" viewBox="0 0 19 34" fill="none">
    <path d="M18 1L2 17L18 33" stroke-width="2"/>
  </symbol>

  <symbol id="play" viewBox="0 0 8 10">
    <path d="M8 5L0.5 9.33013L0.5 0.669872L8 5Z"/>
  </symbol>

  <symbol id="arrow-long" viewBox="0 0 18 8">
    <path d="M0.5 4H16.5M16.5 4L11.5 0.5M16.5 4L11.5 7.5"/>
  </symbol>

  <symbol id="play-two" viewBox="0 0 25 25">
    <circle cx="12.5" cy="12.5" r="12" fill="none" />
    <path d="M11.25 10.3349L15 12.5L11.25 14.6651L11.25 10.3349Z"/>
  </symbol>

  <symbol id="tv-icon" viewBox="0 0 25 25">
    <rect x="0.5" y="5.5" width="24" height="14" rx="1.5" fill="none" />
    <rect x="5" y="24" width="15" height="1" stroke="none" />
    <rect x="11" y="21" width="3" height="1" stroke="none" />
    <path d="M8 1L12 5L14 2.66667" fill="none" stroke-linejoin="bevel" />
    <path d="M14.7912 8L9.64372 13.1174H11.553L10.0854 17L15.356 11.8823H13.4464L14.7912 8Z" stroke="none" />
  </symbol>

  <symbol id="eye" viewBox="0 0 25 25">
    <path class="st0" fill="none" d="M4.4,15.6c2.4,1.9,5.2,2.9,8.1,2.9s5.7-1,8.1-2.9c1.8-1.5,2.7-2.9,2.7-2.9l0,0l0.1-0.1l-0.1-0.1l0,0	c0,0-1-1.5-2.7-2.9c-2.4-1.9-5.2-2.9-8.1-2.9s-5.7,1-8.1,2.9c-1.8,1.4-2.8,2.9-2.8,2.9l0,0l-0.1,0.1l0.1,0.1l0,0 C1.7,12.7,2.6,14.1,4.4,15.6z"/>
    <polygon class="st1" stroke="none" points="1,24 1,21 0,21 0,24 0,25 1,25 4,25 4,24 "/>
    <polygon class="st1" stroke="none" points="24,24 24,21 25,21 25,24 25,25 24,25 21,25 21,24 "/>
    <polygon class="st1" stroke="none" points="1,1 1,4 0,4 0,1 0,0 1,0 4,0 4,1 "/>
    <polygon class="st1" stroke="none" points="24,1 24,4 25,4 25,1 25,0 24,0 21,0 21,1 "/>
    <circle class="st0" fill="none" cx="12.5" cy="12.5" r="3"/>
  </symbol>

  <symbol id="icon-play" viewBox="0 0 15 15">
    <rect opacity="0.3" x="0.5" y="0.5" width="14" height="14" fill="none"/>
    <path d="M10 7.5L6.25 9.66506L6.25 5.33494L10 7.5Z" stroke="none"/>
  </symbol>

  <symbol id="facebook" viewBox="0 0 16 16">
    <g clip-path="url(#clip0)">
      <path d="M5.88053 3.09868C5.88053 3.50189 5.88053 5.30157 5.88053 5.30157H4.26663V7.99526H5.88053V16H9.19583V7.99548H11.4205C11.4205 7.99548 11.6289 6.70388 11.7299 5.29163C11.4403 5.29163 9.20837 5.29163 9.20837 5.29163C9.20837 5.29163 9.20837 3.72453 9.20837 3.44985C9.20837 3.17457 9.56983 2.80429 9.9271 2.80429C10.2837 2.80429 11.0363 2.80429 11.7334 2.80429C11.7334 2.43754 11.7334 1.17033 11.7334 9.62223e-09C10.8028 9.62223e-09 9.74411 9.62223e-09 9.27745 9.62223e-09C5.79858 -0.000185988 5.88053 2.69618 5.88053 3.09868Z" stroke="none"/>
    </g>
    <defs>
      <clipPath id="clip0">
        <rect width="16" height="16" stroke="none" fill="white"/>
      </clipPath>
    </defs>
  </symbol>

  <symbol id="instagram" viewBox="0 0 16 16">
    <path d="M11.2335 0H4.76649C2.13823 0 0 2.13823 0 4.76649V11.2335C0 13.8618 2.13823 16 4.76649 16H11.2335C13.8618 16 16 13.8618 16 11.2335V4.76649C16 2.13823 13.8617 0 11.2335 0ZM14.3904 11.2335C14.3904 12.977 12.977 14.3904 11.2335 14.3904H4.76649C3.023 14.3904 1.6096 12.977 1.6096 11.2335V4.76649C1.6096 3.02297 3.023 1.6096 4.76649 1.6096H11.2335C12.977 1.6096 14.3904 3.02297 14.3904 4.76649V11.2335Z" stroke="none"/>
    <path d="M7.99999 3.86182C5.7182 3.86182 3.86182 5.7182 3.86182 7.99996C3.86182 10.2817 5.7182 12.1381 7.99999 12.1381C10.2818 12.1381 12.1382 10.2817 12.1382 7.99996C12.1382 5.71817 10.2818 3.86182 7.99999 3.86182ZM7.99999 10.5286C6.60348 10.5286 5.47142 9.39649 5.47142 7.99999C5.47142 6.60348 6.60351 5.47142 7.99999 5.47142C9.39649 5.47142 10.5286 6.60348 10.5286 7.99999C10.5286 9.39646 9.39646 10.5286 7.99999 10.5286Z" stroke="none"/>
    <path d="M12.1462 4.88455C12.6938 4.88455 13.1378 4.4406 13.1378 3.89296C13.1378 3.34532 12.6938 2.90137 12.1462 2.90137C11.5986 2.90137 11.1546 3.34532 11.1546 3.89296C11.1546 4.4406 11.5986 4.88455 12.1462 4.88455Z" stroke="none"/>
  </symbol>

  <symbol id="vk" viewBox="0 0 16 16">
    <g clip-path="url(#clip0)">
      <path d="M15.9152 11.6798C15.8958 11.638 15.8777 11.6034 15.861 11.5757C15.5834 11.0757 15.0529 10.462 14.2698 9.73446L14.2533 9.7178L14.245 9.70963L14.2366 9.70125H14.2282C13.8728 9.36247 13.6478 9.13468 13.5535 9.01805C13.3811 8.79589 13.3425 8.57101 13.4367 8.34316C13.5033 8.17101 13.7534 7.80745 14.1865 7.25199C14.4143 6.95761 14.5947 6.72168 14.7279 6.54393C15.6888 5.26652 16.1053 4.45023 15.9775 4.09476L15.9279 4.01169C15.8946 3.96167 15.8085 3.91592 15.6698 3.8742C15.5308 3.83256 15.3531 3.82568 15.1365 3.85342L12.7373 3.87C12.6985 3.85622 12.643 3.85751 12.5707 3.8742C12.4985 3.89089 12.4623 3.89926 12.4623 3.89926L12.4206 3.92012L12.3874 3.94519C12.3597 3.96176 12.3291 3.99091 12.2958 4.03258C12.2626 4.0741 12.2348 4.12282 12.2127 4.17835C11.9515 4.85035 11.6545 5.47514 11.3212 6.05269C11.1157 6.39708 10.927 6.69554 10.7546 6.94825C10.5825 7.20087 10.4381 7.387 10.3215 7.50631C10.2048 7.62573 10.0995 7.72141 10.0049 7.79368C9.91046 7.86598 9.83836 7.89653 9.78844 7.88536C9.7384 7.87418 9.69128 7.8631 9.64666 7.85201C9.56896 7.802 9.50646 7.73398 9.45934 7.64791C9.41201 7.56183 9.38015 7.4535 9.36349 7.32298C9.34692 7.19238 9.33711 7.08005 9.33431 6.9856C9.33171 6.89126 9.33291 6.75783 9.33854 6.58568C9.34432 6.41344 9.34692 6.29691 9.34692 6.23581C9.34692 6.02474 9.35103 5.79566 9.35929 5.54852C9.36769 5.30138 9.37449 5.10557 9.38018 4.96131C9.38584 4.81691 9.38847 4.66414 9.38847 4.50307C9.38847 4.34201 9.37866 4.2157 9.35929 4.12402C9.34015 4.03246 9.31077 3.94358 9.27205 3.85742C9.23309 3.77135 9.17608 3.70476 9.10127 3.65749C9.02631 3.61028 8.93311 3.57282 8.82221 3.54498C8.52783 3.47837 8.15298 3.44233 7.69748 3.43673C6.66455 3.42564 6.00084 3.49235 5.70649 3.63675C5.58987 3.69776 5.48433 3.78112 5.38997 3.88657C5.28998 4.0088 5.27603 4.0755 5.34821 4.08647C5.68149 4.13639 5.91742 4.25582 6.05628 4.44463L6.10632 4.54468C6.14524 4.61687 6.18411 4.74467 6.223 4.9279C6.26184 5.11114 6.2869 5.31384 6.29793 5.53589C6.32565 5.94137 6.32565 6.28848 6.29793 6.57722C6.27012 6.86608 6.24386 7.09096 6.2188 7.25202C6.19374 7.41308 6.15627 7.5436 6.10632 7.64353C6.05628 7.7435 6.02299 7.80459 6.0063 7.82677C5.98964 7.84895 5.97575 7.86292 5.96472 7.86841C5.89253 7.89607 5.81746 7.91016 5.73975 7.91016C5.66194 7.91016 5.56757 7.87124 5.45652 7.79345C5.3455 7.71566 5.23028 7.60881 5.11085 7.47272C4.99143 7.33661 4.85674 7.1464 4.70674 6.90206C4.55685 6.65772 4.40133 6.36895 4.24027 6.03574L4.10701 5.79408C4.02371 5.63862 3.90991 5.41226 3.76551 5.1152C3.62102 4.81802 3.49331 4.53056 3.38229 4.25287C3.33791 4.13625 3.27124 4.04746 3.18239 3.98636L3.14069 3.96129C3.11297 3.93912 3.06848 3.91557 3.00744 3.89048C2.94631 3.86542 2.88253 3.84744 2.81582 3.83638L0.533257 3.85296C0.300008 3.85296 0.141747 3.9058 0.0584144 4.01133L0.0250639 4.06126C0.00840327 4.08907 0 4.13347 0 4.1946C0 4.2557 0.0166606 4.33069 0.0500111 4.41948C0.383224 5.20262 0.745586 5.95789 1.1371 6.68541C1.52861 7.41294 1.86882 7.99898 2.15754 8.44301C2.44631 8.88736 2.74066 9.30674 3.04058 9.70093C3.3405 10.0953 3.53903 10.348 3.63617 10.459C3.73342 10.5702 3.8098 10.6534 3.86533 10.7089L4.07363 10.9088C4.20692 11.0421 4.40264 11.2018 4.6609 11.3878C4.91921 11.5739 5.20518 11.7572 5.51896 11.9378C5.8328 12.1182 6.19791 12.2653 6.61448 12.3792C7.031 12.4931 7.4364 12.5388 7.83074 12.5168H8.78877C8.98307 12.5 9.13027 12.4389 9.23032 12.3334L9.26347 12.2917C9.28576 12.2585 9.30662 12.207 9.32588 12.1377C9.34537 12.0683 9.35506 11.9918 9.35506 11.9087C9.34937 11.6699 9.36755 11.4547 9.40909 11.2631C9.45061 11.0716 9.49794 10.9272 9.55087 10.8299C9.60377 10.7328 9.66347 10.6508 9.72991 10.5843C9.79649 10.5177 9.84394 10.4774 9.87177 10.4635C9.89943 10.4495 9.92152 10.44 9.93818 10.4343C10.0715 10.3899 10.2283 10.4329 10.409 10.5636C10.5895 10.6941 10.7588 10.8552 10.9172 11.0467C11.0755 11.2384 11.2657 11.4535 11.4878 11.6923C11.71 11.9311 11.9044 12.1087 12.0709 12.2255L12.2375 12.3254C12.3487 12.3921 12.4931 12.4532 12.6708 12.5088C12.8483 12.5643 13.0037 12.5781 13.1372 12.5504L15.2698 12.5171C15.4807 12.5171 15.6448 12.4822 15.7612 12.4129C15.8779 12.3435 15.9472 12.267 15.9695 12.1838C15.9918 12.1006 15.993 12.0061 15.9738 11.9005C15.954 11.7951 15.9346 11.7214 15.9152 11.6798Z" stroke="none"/>
    </g>
    <defs>
      <clipPath id="clip0">
        <rect width="16" height="16" fill="white"/>
      </clipPath>
    </defs>
  </symbol>

  <symbol id="youtube" viewBox="0 0 16 16">
    <path d="M12.677 2.33887H3.323C1.48775 2.33887 0 3.82662 0 5.66186V10.3379C0 12.1731 1.48775 13.6609 3.323 13.6609H12.677C14.5122 13.6609 16 12.1731 16 10.3379V5.66186C16 3.82662 14.5122 2.33887 12.677 2.33887ZM10.4297 8.22737L6.05451 10.3141C5.93793 10.3697 5.80327 10.2847 5.80327 10.1555V5.85171C5.80327 5.72072 5.94147 5.63583 6.05829 5.69504L10.4335 7.91216C10.5636 7.97807 10.5613 8.16462 10.4297 8.22737Z" stroke="none"/>
  </symbol>

  <symbol id="odnoklassniki" viewBox="0 0 16 16">
    <g clip-path="url(#clip0)">
      <path d="M7.21251 11.2701C5.97213 11.1407 4.85375 10.8352 3.89624 10.0863C3.77744 9.99318 3.65477 9.90336 3.54635 9.7993C3.12725 9.39679 3.08503 8.9358 3.41665 8.46073C3.70035 8.0542 4.17659 7.94544 4.6716 8.17887C4.76745 8.22411 4.85878 8.28059 4.94625 8.34125C6.73073 9.56738 9.18215 9.60123 10.9733 8.39638C11.1508 8.26031 11.3405 8.14938 11.5603 8.09274C11.9878 7.98298 12.3865 8.13999 12.6159 8.51402C12.878 8.94116 12.8746 9.35808 12.5517 9.6897C12.0564 10.1981 11.4606 10.5659 10.7987 10.8227C10.1728 11.0653 9.4873 11.1875 8.8088 11.2686C8.91119 11.38 8.95945 11.4348 9.02346 11.4992C9.94478 12.4248 10.8701 13.3466 11.7884 14.2752C12.1013 14.5915 12.1666 14.9838 11.9944 15.3518C11.806 15.754 11.3844 16.0186 10.971 15.9903C10.7091 15.9722 10.5048 15.8418 10.3233 15.659C9.62806 14.9594 8.91974 14.2726 8.23855 13.5598C8.04031 13.3525 7.94497 13.3917 7.77002 13.5717C7.07057 14.2918 6.35973 15.0008 5.6447 15.7057C5.32363 16.0223 4.94156 16.0792 4.56922 15.8984C4.17341 15.7066 3.92155 15.3025 3.94099 14.8965C3.95439 14.6219 4.08946 14.4121 4.27798 14.2239C5.18974 13.3135 6.09899 12.4007 7.00857 11.4888C7.06873 11.4281 7.12487 11.3638 7.21251 11.2701Z" stroke="none" />
      <path d="M7.96805 8.09863C5.75525 8.09109 3.94078 6.25667 3.95368 4.04036C3.96642 1.79958 5.78207 -0.00618427 8.01665 1.59188e-05C10.2558 0.00604853 12.053 1.83778 12.0417 4.10186C12.0303 6.31365 10.2033 8.10634 7.96805 8.09863ZM9.97909 4.04572C9.97523 2.94527 9.09883 2.0692 8.00056 2.0682C6.89307 2.06702 6.00879 2.95901 6.01734 4.06952C6.02555 5.16578 6.90949 6.03565 8.01078 6.03162C9.10872 6.02777 9.98277 5.146 9.97909 4.04572Z" stroke="none"/>
    </g>
    <defs>
      <clipPath id="clip0">
        <rect width="16" height="16" fill="white"/>
      </clipPath>
    </defs>
  </symbol>

  <symbol id="telegram" viewBox="0 0 16 16">
    <path d="M0.282607 6.71486L3.96933 8.09086L5.39631 12.68C5.48762 12.974 5.84703 13.0826 6.08559 12.8876L8.14063 11.2122C8.35605 11.0367 8.66287 11.028 8.88799 11.1914L12.5946 13.8824C12.8498 14.0679 13.2113 13.9281 13.2753 13.6197L15.9906 0.558861C16.0604 0.222008 15.7294 -0.0590057 15.4087 0.0650476L0.278287 5.9019C-0.0950995 6.0459 -0.0918461 6.57454 0.282607 6.71486ZM5.16634 7.35838L12.3716 2.92067C12.5011 2.84115 12.6343 3.01625 12.5231 3.11939L6.57669 8.64686C6.36767 8.84142 6.23285 9.10179 6.19466 9.38441L5.9921 10.8855C5.96527 11.086 5.68373 11.1058 5.62842 10.9119L4.84938 8.17454C4.76015 7.86233 4.89018 7.52883 5.16634 7.35838Z" stroke="none"/>
  </symbol>

</svg>
