<svg width="18" height="18" viewBox="0 0 18 18" fill="none" xmlns="http://www.w3.org/2000/svg">
<path d="M15.5264 12.2379C15.7205 12.2379 15.8779 12.0805 15.8779 11.8864C15.8779 11.6922 15.7205 11.5348 15.5264 11.5348C15.3322 11.5348 15.1748 11.6922 15.1748 11.8864C15.1748 12.0805 15.3322 12.2379 15.5264 12.2379Z" fill="white"/>
<path d="M2.14331 12.2379C2.33747 12.2379 2.49487 12.0805 2.49487 11.8864C2.49487 11.6922 2.33747 11.5348 2.14331 11.5348C1.94915 11.5348 1.79175 11.6922 1.79175 11.8864C1.79175 12.0805 1.94915 12.2379 2.14331 12.2379Z" fill="white"/>
<path d="M17.3777 17.2967H14.3586L14.3401 8.65631C14.3397 8.46236 14.1824 8.30545 13.9885 8.30545C13.9883 8.30545 13.988 8.30545 13.9877 8.30545C13.7935 8.30587 13.6365 8.46362 13.6369 8.65782L13.6553 17.2967H12.6341L12.6251 13.4525C12.6246 13.2585 12.4673 13.1017 12.2735 13.1017C12.2732 13.1017 12.2729 13.1017 12.2726 13.1017C12.0784 13.1021 11.9213 13.2599 11.9218 13.4541L11.9309 17.2967H11.0771V12.6435C12.0724 12.5555 12.8549 11.7376 12.8549 10.7445V7.33697C12.8549 6.79514 12.7399 6.26404 12.52 5.77354C13.2144 5.81991 13.8608 6.10242 14.358 6.58259C14.9022 7.10803 15.2027 7.80673 15.2043 8.55032L15.2107 10.5513C15.2113 10.7451 15.3686 10.9018 15.5623 10.9018C15.5627 10.9018 15.5631 10.9018 15.5634 10.9018C15.7576 10.9011 15.9146 10.7432 15.914 10.549L15.9075 8.54845C15.9055 7.6133 15.5287 6.73548 14.8465 6.07672C14.4568 5.70045 13.994 5.42176 13.4896 5.2527C13.8469 4.91263 14.0698 4.43275 14.0687 3.90175C14.0665 2.87722 13.2323 2.04525 12.2083 2.04525C12.2069 2.04525 12.2056 2.04525 12.2043 2.04525C11.9059 2.04592 11.6093 2.11897 11.3464 2.25654C11.1744 2.34661 11.1079 2.55909 11.198 2.73115C11.2881 2.9032 11.5006 2.96968 11.6726 2.87961C11.838 2.79302 12.0174 2.7489 12.2058 2.74848C12.8449 2.74816 13.3641 3.26514 13.3655 3.90322C13.3669 4.54131 12.8489 5.06155 12.2108 5.06292C12.1956 5.06296 12.1808 5.06426 12.1662 5.06616C12.1475 5.06693 12.1288 5.0676 12.11 5.06865C11.602 4.3734 10.8888 3.86905 10.0766 3.61311C10.5078 3.23476 10.7809 2.68024 10.7809 2.06279C10.7807 0.925348 9.85541 0 8.718 0C7.58055 0 6.65521 0.925348 6.65521 2.06279C6.65521 2.71016 6.95523 3.28855 7.42327 3.66701C6.67767 3.93609 6.02426 4.41812 5.54972 5.06665C5.49403 5.06415 5.43841 5.06268 5.38308 5.06268C5.35678 5.06268 5.33055 5.0631 5.30436 5.06366C5.29793 5.06331 5.2916 5.06268 5.2851 5.06268C4.64701 5.06268 4.12789 4.54356 4.12789 3.90547C4.12789 3.26739 4.64701 2.74827 5.2851 2.74827C5.47796 2.74827 5.66876 2.79657 5.8368 2.88795C6.00742 2.98065 6.22089 2.91758 6.3137 2.74697C6.40644 2.57636 6.34334 2.36285 6.17272 2.27007C5.90188 2.1228 5.59493 2.04497 5.28506 2.04497C4.2592 2.04497 3.42459 2.87958 3.42459 3.90544C3.42459 4.46407 3.67244 4.96561 4.06352 5.30694C2.73416 5.81955 1.79166 7.08275 1.79166 8.55608V10.5501C1.79166 10.7443 1.94909 10.9018 2.14329 10.9018C2.33749 10.9018 2.49492 10.7443 2.49492 10.5501V8.55608C2.49492 7.0978 3.65916 5.89806 5.1367 5.7768C4.91778 6.26636 4.80328 6.79627 4.80328 7.33697V10.7445C4.80328 11.7572 5.61704 12.5878 6.64037 12.6478V17.2967H5.68243V13.4532C5.68243 13.259 5.525 13.1015 5.3308 13.1015C5.1366 13.1015 4.97917 13.259 4.97917 13.4532V17.2967H4.11482V8.6606C4.11482 8.4664 3.95739 8.30897 3.76318 8.30897C3.56898 8.30897 3.41155 8.4664 3.41155 8.6606V17.2967H0.622324C0.428121 17.2967 0.270691 17.4542 0.270691 17.6484C0.270691 17.8426 0.428085 18 0.622324 18H17.3777C17.5719 18 17.7293 17.8426 17.7293 17.6484C17.7292 17.4542 17.5719 17.2967 17.3777 17.2967ZM7.35844 2.06279C7.35844 1.31316 7.96833 0.703266 8.71796 0.703266C9.4676 0.703266 10.0775 1.31316 10.0775 2.06279C10.0775 2.81243 9.46757 3.42232 8.71796 3.42232C7.96836 3.42232 7.35844 2.81243 7.35844 2.06279ZM10.7254 7.10388C10.5312 7.10388 10.3738 7.26131 10.3738 7.45552V17.2967H9.12145V12.4048C9.12145 12.2106 8.96402 12.0532 8.76982 12.0532C8.57562 12.0532 8.41819 12.2106 8.41819 12.4048V17.2968H7.34364V7.45552C7.34364 7.26131 7.18621 7.10388 6.992 7.10388C6.7978 7.10388 6.64037 7.26131 6.64037 7.45552V11.9429C6.0052 11.8852 5.50651 11.3699 5.50651 10.7445V7.337C5.50651 6.72845 5.68349 6.1361 6.01832 5.62405C6.63186 4.68577 7.68261 4.12559 8.82906 4.12559C9.9774 4.12559 11.0291 4.68721 11.6423 5.62795C11.9755 6.13912 12.1516 6.7301 12.1516 7.337V10.7445C12.1516 11.3503 11.6837 11.8528 11.0771 11.9361V7.45552C11.0771 7.26131 10.9196 7.10388 10.7254 7.10388Z" fill="white"/>
</svg>
