<svg width="16" height="14" viewBox="0 0 16 14" fill="none" xmlns="http://www.w3.org/2000/svg">
  <path d="M0.282607 6.71486L3.96933 8.09086L5.39631 12.68C5.48762 12.974 5.84703 13.0826 6.08559 12.8876L8.14063 11.2122C8.35605 11.0367 8.66287 11.028 8.88799 11.1914L12.5946 13.8824C12.8498 14.0679 13.2113 13.9281 13.2753 13.6197L15.9906 0.558861C16.0604 0.222008 15.7294 -0.0590057 15.4087 0.0650476L0.278287 5.9019C-0.0950995 6.0459 -0.0918461 6.57454 0.282607 6.71486ZM5.16634 7.35838L12.3716 2.92067C12.5011 2.84115 12.6343 3.01625 12.5231 3.11939L6.57669 8.64686C6.36767 8.84142 6.23285 9.10179 6.19466 9.38441L5.9921 10.8855C5.96527 11.086 5.68373 11.1058 5.62842 10.9119L4.84938 8.17454C4.76015 7.86233 4.89018 7.52883 5.16634 7.35838Z" fill="white"/>
</svg>
