<svg width="80" height="40" viewBox="0 0 80 40" fill="none" xmlns="http://www.w3.org/2000/svg">
<g clip-path="url(#clip0)">
<path d="M0.00176239 33.9884C-0.00639343 34.1038 0.0214539 34.2054 0.0751877 34.2984C0.0808105 34.3603 0.0945892 34.4107 0.123001 34.4729L1.59676 37.6257C1.68959 37.8258 1.88931 37.9016 2.1062 37.9016H12.1937C12.5057 37.9016 12.7564 37.6482 12.7564 37.3385C12.7564 37.0289 12.5057 36.7755 12.1937 36.7755H2.46627L1.4592 34.5683C1.46201 34.5683 1.48986 34.6021 1.5042 34.6134L14.9984 34.6021C14.3288 35.1621 13.8591 35.99 13.8591 36.9328C13.8591 38.6107 15.2259 39.9536 16.9056 39.9536C17.9911 39.9536 18.945 39.3089 19.4851 38.4643H27.2151C27.7524 39.3089 28.706 39.9508 29.7947 39.9508C31.4743 39.9508 32.8384 38.633 32.8384 36.9551C32.8384 36.012 32.408 35.1649 31.7328 34.6044L46.7429 34.5931C46.065 35.1533 45.6349 35.9866 45.6349 36.9326C45.6349 38.6104 46.9992 39.9533 48.6783 39.9533C49.7641 39.9533 50.7177 39.3086 51.2579 38.4641H58.8902C58.9209 38.4641 58.9521 38.5063 58.9827 38.5035C59.52 39.3677 60.4767 39.9986 61.5679 39.9986C63.2473 39.9986 64.6116 38.6248 64.6116 36.9438C64.6116 35.9954 64.1756 35.1336 63.4946 34.5765L77.0281 34.5455L75.6019 36.7752H66.2038C65.8941 36.7752 65.6412 37.0286 65.6412 37.3382C65.6412 37.6479 65.8941 37.9013 66.2038 37.9013H75.9116C76.1054 37.9013 76.2857 37.8534 76.3898 37.6873L78.5221 34.3344C78.6034 34.2021 78.629 34.047 78.5924 33.9008C78.6093 33.8361 78.6118 33.7657 78.6006 33.6953L76.3023 17.9781L78.7809 18.8143C78.8569 19.062 78.9272 19.4364 78.8203 19.7067C78.7809 19.8024 78.6993 19.946 78.4405 20.0502C78.1533 20.1656 78.0127 20.495 78.1308 20.7824C78.2183 21.0017 78.4293 21.1343 78.6515 21.1343C78.7218 21.1343 78.795 21.12 78.8625 21.0921C79.3435 20.8978 79.692 20.5572 79.8665 20.1124C80.2153 19.2284 79.7767 18.2346 79.723 18.1248C79.6583 17.9841 79.5401 17.8715 79.3939 17.8208L76.1167 16.7031L75.9229 15.3487C75.8832 15.0731 75.6472 14.8166 75.3684 14.8166H62.5469V13.2288C62.5469 12.9189 62.2962 12.5645 61.9842 12.5645H58.6618L65.1571 8.09949C65.3202 7.98716 65.4102 7.84893 65.399 7.65186C65.3849 7.45789 65.2724 7.28053 65.098 7.19017L55.9303 2.39019L57.1793 0.974124C57.3844 0.74046 57.3619 0.38574 57.1284 0.180228C56.898 -0.0250031 56.5405 -0.00248118 56.3354 0.228087L54.8076 1.95946L53.342 0.20275C53.1423 -0.0365456 52.7879 -0.0703284 52.549 0.129553C52.3096 0.329435 52.279 0.68134 52.4787 0.920635L53.663 2.33951L44.5991 7.1789C44.4278 7.27181 44.315 7.43509 44.3037 7.62934C44.2925 7.82641 44.3825 7.98716 44.5431 8.09949L51.03 12.5645H47.6375C47.3278 12.5645 47.0749 12.9192 47.0749 13.2288V14.8166H2.01534C1.72279 14.8166 1.47804 15.0925 1.45554 15.3881L0.00176239 33.9884ZM1.16383 33.5101L1.52361 28.8931H7.02029L9.21165 31.5085C9.31854 31.6351 9.47607 31.7083 9.64204 31.7083H69.4672C69.6866 31.7083 69.8864 31.5788 69.9792 31.379L71.3714 28.3301H76.6123C76.6405 28.3301 76.6655 28.3779 76.6939 28.3723L76.8599 29.5575L75.2761 30.1966C75.0652 30.2841 74.9245 30.4893 74.9245 30.7202V33.4732L1.42544 33.4676C1.3298 33.4679 1.24232 33.4679 1.16383 33.5101ZM1.6111 27.767L2.3816 17.9137H5.72376V27.767H1.6111ZM2.46908 16.7876L2.5366 15.943H74.8823L75.0061 16.7876H2.46908ZM6.84898 27.767V17.9137H74.5898L72.6656 19.1299C72.4966 19.2309 72.3928 19.4646 72.3928 19.6619V27.204H71.0116C70.7893 27.204 70.5896 27.3335 70.4996 27.5333L69.1043 30.5822H9.90394L7.71259 27.9669C7.60569 27.8402 7.44844 27.767 7.28247 27.767H6.84898ZM14.9843 36.9587C14.9843 35.8999 15.8451 35.0388 16.9056 35.0388C17.9633 35.0388 18.8238 35.9002 18.8238 36.9587C18.8238 38.0173 17.963 38.8785 16.9056 38.8785C15.8451 38.8787 14.9843 38.0173 14.9843 36.9587ZM18.8463 34.5627L27.8565 34.5599C27.4877 34.8667 27.1926 35.3679 27.0013 35.6494H19.6733C19.6846 35.6691 19.6928 35.6888 19.7015 35.7085C19.6705 35.6972 19.4089 35.6578 19.3783 35.6494H19.6736C19.4821 35.2274 19.1979 34.8555 18.8463 34.5627ZM26.7931 37.3388H19.9071C19.9324 37.3388 19.949 37.0207 19.949 36.8574C19.949 36.8293 19.9434 36.7758 19.9434 36.7758H26.7566C26.7538 36.7758 26.7509 36.8293 26.7509 36.8574C26.7512 37.0207 26.7681 37.3388 26.7931 37.3388ZM27.8764 36.9587C27.8764 35.8999 28.7372 35.0388 29.7947 35.0388C30.8521 35.0388 31.7131 35.9002 31.7131 36.9587C31.7131 38.0173 30.8521 38.8785 29.7947 38.8785C28.7372 38.8785 27.8764 38.0173 27.8764 36.9587ZM52.9716 12.5926L45.9418 7.74758L54.7522 3.03516C54.755 3.03797 54.7578 3.03206 54.7604 3.03516C54.7663 3.03797 54.7688 3.02671 54.7716 3.02925L63.7539 7.70535L56.6904 12.5645H52.9969C52.9884 12.5647 52.9797 12.5985 52.9716 12.5926ZM46.7604 36.9587C46.7604 35.8999 47.6183 35.0388 48.6786 35.0388C49.7366 35.0388 50.5971 35.9002 50.5971 36.9587C50.5971 38.0173 49.7363 38.8785 48.6786 38.8785C47.6183 38.8787 46.7604 38.0173 46.7604 36.9587ZM48.2006 14.8169V13.6908H61.4219V14.8169H48.2006ZM50.6086 34.5545L59.6413 34.5514C59.2671 34.8586 58.9687 35.3679 58.7749 35.6494C58.7749 35.6494 51.5003 35.686 51.4691 35.6916C51.2753 35.2386 50.9827 34.8642 50.6086 34.5545ZM58.5667 37.3388H51.6804C51.706 37.3388 51.7226 37.0207 51.7226 36.8574C51.7226 36.8293 51.7198 36.7758 51.7169 36.7758H58.5301C58.5273 36.7758 58.5242 36.8293 58.5242 36.8574C58.5242 37.0207 58.5414 37.3388 58.5667 37.3388ZM59.6494 36.9587C59.6494 35.8999 60.5105 35.0388 61.5679 35.0388C62.6253 35.0388 63.4864 35.9002 63.4864 36.9587C63.4864 38.0173 62.6253 38.8785 61.5679 38.8785C60.5105 38.8785 59.6494 38.0173 59.6494 36.9587ZM73.518 27.204V19.9801L75.2984 18.8512L76.5308 27.204H73.518ZM76.0497 33.3975V31.1002L77.0284 30.6667L77.4335 33.3975H76.0497Z" fill="#1C2F4A"/>
<path d="M1.52311 28.8938L1.16332 33.5108C1.24181 33.4686 1.32929 33.4686 1.42493 33.4686L74.924 33.4742V30.7212C74.924 30.4903 75.0647 30.2848 75.2756 30.1976L76.8594 29.5585L76.6934 28.3733C76.665 28.3789 76.64 28.3311 76.6118 28.3311H71.3709L69.9787 31.38C69.8859 31.5798 69.6861 31.7093 69.4667 31.7093H9.64182C9.47585 31.7093 9.31832 31.6361 9.21143 31.5095L7.02007 28.8941H1.52311V28.8938Z" fill="#FDCD08"/>
<path d="M2.38049 17.915L1.60999 27.7684H5.72266V17.915H2.38049Z" fill="#72B6E5"/>
<path d="M2.53443 15.9443L2.46691 16.7889H75.0039L74.8801 15.9443H2.53443Z" fill="#FDCD08"/>
<path d="M9.09936 21.7859V25.868C9.09936 27.3854 10.3256 28.6128 11.8421 28.6128H17.8929C19.4063 28.6128 20.6328 27.3854 20.6328 25.868V21.7859C20.6328 20.2685 19.4063 19.041 17.8929 19.041H11.8421C10.3256 19.041 9.09936 20.2685 9.09936 21.7859ZM10.2246 25.868V21.7859C10.2246 20.8906 10.9472 20.1671 11.8421 20.1671H17.8929C18.7847 20.1671 19.5076 20.8906 19.5076 21.7859V25.868C19.5076 26.7632 18.7847 27.4867 17.8929 27.4867H11.8421C10.9472 27.4867 10.2246 26.7629 10.2246 25.868Z" fill="#1C2F4A"/>
<path d="M10.2248 21.7858V25.8678C10.2248 26.7631 10.9475 27.4866 11.8423 27.4866H17.8931C18.7849 27.4866 19.5078 26.7631 19.5078 25.8678V21.7858C19.5078 20.8905 18.7849 20.167 17.8931 20.167H11.8423C10.9475 20.167 10.2248 20.8905 10.2248 21.7858Z" fill="#2B7DBE"/>
<path d="M16.906 35.0391C15.8452 35.0391 14.9847 35.9005 14.9847 36.9591C14.9847 38.0176 15.8455 38.8788 16.906 38.8788C17.9637 38.8788 18.8242 38.0173 18.8242 36.9591C18.8242 35.9002 17.9637 35.0391 16.906 35.0391ZM15.747 36.9478C15.747 36.3876 16.2056 35.9287 16.7654 35.9287C17.328 35.9287 17.7834 36.3876 17.7834 36.9478C17.7834 37.5108 17.328 37.9669 16.7654 37.9669C16.2056 37.9669 15.747 37.5108 15.747 36.9478Z" fill="#72B6E5"/>
<path d="M16.7671 35.9297C16.2073 35.9297 15.7488 36.3886 15.7488 36.9488C15.7488 37.5119 16.2073 37.9679 16.7671 37.9679C17.3297 37.9679 17.7852 37.5119 17.7852 36.9488C17.7852 36.3886 17.3297 35.9297 16.7671 35.9297Z" fill="#1C2F4A"/>
<path d="M19.6753 35.6504H19.3799C19.4106 35.6588 19.6722 35.6982 19.7031 35.7095C19.6947 35.6895 19.6865 35.6701 19.6753 35.6504Z" fill="#1C2F4A"/>
<path d="M19.9069 37.3394H26.793C26.7677 37.3394 26.7511 37.0213 26.7511 36.858C26.7511 36.8299 26.7539 36.7764 26.7567 36.7764H19.9435C19.9435 36.7764 19.9491 36.8299 19.9491 36.858C19.9489 37.0213 19.9323 37.3394 19.9069 37.3394Z" fill="#FDCD08"/>
<path d="M21.4744 21.7859V25.868C21.4744 27.3854 22.7006 28.6128 24.2171 28.6128H30.2679C31.7813 28.6128 33.0078 27.3854 33.0078 25.868V21.7859C33.0078 20.2685 31.7813 19.041 30.2679 19.041H24.2171C22.7006 19.041 21.4744 20.2685 21.4744 21.7859ZM22.5996 25.868V21.7859C22.5996 20.8906 23.3222 20.1671 24.2171 20.1671H30.2679C31.1596 20.1671 31.8826 20.8906 31.8826 21.7859V25.868C31.8826 26.7632 31.1596 27.4867 30.2679 27.4867H24.2171C23.3222 27.4867 22.5996 26.7629 22.5996 25.868Z" fill="#1C2F4A"/>
<path d="M22.5998 21.7858V25.8678C22.5998 26.7631 23.3225 27.4866 24.2173 27.4866H30.2681C31.1599 27.4866 31.8828 26.7631 31.8828 25.8678V21.7858C31.8828 20.8905 31.1599 20.167 30.2681 20.167H24.2173C23.3225 20.167 22.5998 20.8905 22.5998 21.7858Z" fill="#2B7DBE"/>
<path d="M29.7963 35.0391C28.7386 35.0391 27.8781 35.9005 27.8781 36.9591C27.8781 38.0176 28.7389 38.8788 29.7963 38.8788C30.8538 38.8788 31.7148 38.0173 31.7148 36.9591C31.7151 35.9002 30.8541 35.0391 29.7963 35.0391ZM28.6883 36.9478C28.6883 36.3876 29.1468 35.9287 29.7066 35.9287C30.2692 35.9287 30.7247 36.3876 30.7247 36.9478C30.7247 37.5108 30.2692 37.9669 29.7066 37.9669C29.1468 37.9669 28.6883 37.5108 28.6883 36.9478Z" fill="#72B6E5"/>
<path d="M29.7046 35.9297C29.1448 35.9297 28.6863 36.3886 28.6863 36.9488C28.6863 37.5119 29.1448 37.9679 29.7046 37.9679C30.2672 37.9679 30.7227 37.5119 30.7227 36.9488C30.7227 36.3886 30.2672 35.9297 29.7046 35.9297Z" fill="#1C2F4A"/>
<path d="M33.8532 21.7859V25.868C33.8532 27.3854 35.0795 28.6128 36.596 28.6128H42.6468C44.1602 28.6128 45.3867 27.3854 45.3867 25.868V21.7859C45.3867 20.2685 44.1602 19.041 42.6468 19.041H36.596C35.0795 19.041 33.8532 20.2685 33.8532 21.7859ZM34.9785 25.868V21.7859C34.9785 20.8906 35.7011 20.1671 36.596 20.1671H42.6468C43.5386 20.1671 44.2615 20.8906 44.2615 21.7859V25.868C44.2615 26.7632 43.5386 27.4867 42.6468 27.4867H36.596C35.7011 27.4867 34.9785 26.7629 34.9785 25.868Z" fill="#1C2F4A"/>
<path d="M34.416 36.7764C34.1063 36.7764 33.8534 37.0297 33.8534 37.3394C33.8534 37.6491 34.1063 37.9025 34.416 37.9025H43.9804C44.2923 37.9025 44.543 37.6491 44.543 37.3394C44.543 37.0297 44.2923 36.7764 43.9804 36.7764H34.416Z" fill="#1C2F4A"/>
<path d="M34.9787 21.7858V25.8678C34.9787 26.7631 35.7014 27.4866 36.5962 27.4866H42.647C43.5388 27.4866 44.2617 26.7631 44.2617 25.8678V21.7858C44.2617 20.8905 43.5388 20.167 42.647 20.167H36.5962C35.7014 20.167 34.9787 20.8905 34.9787 21.7858Z" fill="#2B7DBE"/>
<path d="M46.2283 21.7859V25.868C46.2283 27.3854 47.4545 28.6128 48.971 28.6128H55.0218C56.5352 28.6128 57.7617 27.3854 57.7617 25.868V21.7859C57.7617 20.2685 56.5352 19.041 55.0218 19.041H48.971C47.4545 19.041 46.2283 20.2685 46.2283 21.7859ZM47.3535 25.868V21.7859C47.3535 20.8906 48.0761 20.1671 48.971 20.1671H55.0218C55.9136 20.1671 56.6365 20.8906 56.6365 21.7859V25.868C56.6365 26.7632 55.9136 27.4867 55.0218 27.4867H48.971C48.0761 27.4867 47.3535 26.7629 47.3535 25.868Z" fill="#1C2F4A"/>
<path d="M48.6792 35.0391C47.6186 35.0391 46.7609 35.9005 46.7609 36.9591C46.7609 38.0176 47.6189 38.8788 48.6792 38.8788C49.7371 38.8788 50.5977 38.0173 50.5977 36.9591C50.5979 35.9002 49.7371 35.0391 48.6792 35.0391ZM47.5345 36.9478C47.5345 36.3876 47.9931 35.9287 48.5529 35.9287C49.1155 35.9287 49.5709 36.3876 49.5709 36.9478C49.5709 37.5108 49.1155 37.9669 48.5529 37.9669C47.9931 37.9669 47.5345 37.5108 47.5345 36.9478Z" fill="#72B6E5"/>
<path d="M47.3576 21.7858V25.8678C47.3576 26.7631 48.0803 27.4866 48.9751 27.4866H55.0259C55.9177 27.4866 56.6406 26.7631 56.6406 25.8678V21.7858C56.6406 20.8905 55.9177 20.167 55.0259 20.167H48.9751C48.0803 20.167 47.3576 20.8905 47.3576 21.7858Z" fill="#2B7DBE"/>
<path d="M48.5523 35.9297C47.9925 35.9297 47.534 36.3886 47.534 36.9488C47.534 37.5119 47.9925 37.9679 48.5523 37.9679C49.1149 37.9679 49.5703 37.5119 49.5703 36.9488C49.5703 36.3886 49.1149 35.9297 48.5523 35.9297Z" fill="#1C2F4A"/>
<path d="M51.6801 37.3394H58.5664C58.5411 37.3394 58.5242 37.0213 58.5242 36.858C58.5242 36.8299 58.5273 36.7764 58.5301 36.7764H51.7169C51.7197 36.7764 51.7226 36.8299 51.7226 36.858C51.7226 37.0213 51.7057 37.3394 51.6801 37.3394Z" fill="#FDCD08"/>
<path d="M58.3259 21.7859V25.868C58.3259 27.3854 59.5521 28.6128 61.0686 28.6128H67.1195C68.6329 28.6128 69.8594 27.3854 69.8594 25.868V21.7859C69.8594 20.2685 68.6329 19.041 67.1195 19.041H61.0686C59.5521 19.041 58.3259 20.2685 58.3259 21.7859ZM59.4511 25.868V21.7859C59.4511 20.8906 60.1738 20.1671 61.0686 20.1671H67.1195C68.0112 20.1671 68.7342 20.8906 68.7342 21.7859V25.868C68.7342 26.7632 68.0112 27.4867 67.1195 27.4867H61.0686C60.1738 27.4867 59.4511 26.7629 59.4511 25.868Z" fill="#1C2F4A"/>
<path d="M59.4513 21.7858V25.8678C59.4513 26.7631 60.174 27.4866 61.0688 27.4866H67.1197C68.0114 27.4866 68.7344 26.7631 68.7344 25.8678V21.7858C68.7344 20.8905 68.0114 20.167 67.1197 20.167H61.0688C60.174 20.167 59.4513 20.8905 59.4513 21.7858Z" fill="#2B7DBE"/>
<path d="M61.5659 35.0391C60.5082 35.0391 59.6474 35.9005 59.6474 36.9591C59.6474 38.0176 60.5085 38.8788 61.5659 38.8788C62.6233 38.8788 63.4844 38.0173 63.4844 36.9591C63.4844 35.9002 62.6233 35.0391 61.5659 35.0391ZM60.4716 36.9478C60.4716 36.3876 60.9301 35.9287 61.4899 35.9287C62.0525 35.9287 62.508 36.3876 62.508 36.9478C62.508 37.5108 62.0525 37.9669 61.4899 37.9669C60.9301 37.9669 60.4716 37.5108 60.4716 36.9478Z" fill="#72B6E5"/>
<path d="M61.4937 35.9297C60.9339 35.9297 60.4754 36.3886 60.4754 36.9488C60.4754 37.5119 60.9339 37.9679 61.4937 37.9679C62.0563 37.9679 62.5117 37.5119 62.5117 36.9488C62.5117 36.3886 62.0563 35.9297 61.4937 35.9297Z" fill="#1C2F4A"/>
<path d="M73.5185 19.9814V27.2053H76.5312L75.2989 18.8525L73.5185 19.9814Z" fill="#2B7DBE"/>
</g>
<defs>
<clipPath id="clip0">
<rect width="80" height="40" fill="white" transform="matrix(-1 0 0 1 80 0)"/>
</clipPath>
</defs>
</svg>
